<svg id="Layer_1" data-name="Layer 1" xmlns="http://www.w3.org/2000/svg" viewBox="0 0 233.11 79.54"><defs><style>.cls-1{fill:#fff;}.cls-2{fill:#0393b7;}</style></defs><title>logo-footer</title><path class="cls-1" d="M60.65,8.6a9,9,0,0,1,3.63-2.69c.4,0,.54-.21.44-.46a2.81,2.81,0,0,0-.79-.9,11.36,11.36,0,0,0-1.52-1.06,13.83,13.83,0,0,0-1.8-.91A6.56,6.56,0,0,0,59,2.14a1,1,0,0,0-1,.32A22.89,22.89,0,0,0,54.5,7.13q-1.72,3-3.39,6.58T47.9,21.36q-1.55,4-2.88,8t-2.45,7.5q-1.11,3.57-1.9,6.21c-.54,1.76-1,3.15-1.25,4.15s-.45,1.44-.48,1.3a15.58,15.58,0,0,1,0-2.95q.12-1.74.42-3.78c.2-1.37.44-2.79.7-4.27s.53-2.95.77-4.41.44-2.86.62-4.21.27-2.57.3-3.67a3.09,3.09,0,0,0-1.14-1.64,9.79,9.79,0,0,0-2-1.26,6.41,6.41,0,0,0-1.92-.63c-.59-.08-.92,0-1,.33v.92c-.22.91-.55,2-1,3.28s-1,2.68-1.56,4.17-1.24,3-1.92,4.63-1.37,3.14-2.07,4.65-1.37,2.93-2,4.25-1.24,2.47-1.75,3.43a23.4,23.4,0,0,1-1.26,2.2c-.33.51-.53.68-.58.52a4.45,4.45,0,0,1-.16-1.82c0-.81.16-1.72.32-2.73s.36-2.05.6-3.14.48-2.13.72-3.11.46-1.84.66-2.58.35-1.29.43-1.61c.26-1.09.57-2.32.92-3.66s.69-2.77,1-4.25.67-3,1-4.49.54-3,.74-4.37a36.77,36.77,0,0,0,.36-4,13.84,13.84,0,0,0-.22-3.23A2.9,2.9,0,0,0,28.8,9.52,10.24,10.24,0,0,0,26.92,8.3,6.69,6.69,0,0,0,25,7.64c-.59-.11-1-.06-1.12.16a35.28,35.28,0,0,0-7.84,3.74,36.74,36.74,0,0,0-6.17,5,33.62,33.62,0,0,0-4.49,5.6A27,27,0,0,0,2.65,27.7a16.21,16.21,0,0,0-1,5,6.87,6.87,0,0,0,.89,3.79,3.76,3.76,0,0,0,.86,1,17.36,17.36,0,0,0,1.48,1.16,17.78,17.78,0,0,0,1.72,1.08,11.6,11.6,0,0,0,1.59.76,2.14,2.14,0,0,0,1.06.2c.25,0,.3-.24.14-.62a9.64,9.64,0,0,1-.54-3.58,20.8,20.8,0,0,1,.64-4.73,33.33,33.33,0,0,1,1.8-5.28,29,29,0,0,1,3-5.23,28.52,28.52,0,0,1,4.13-4.61,19.79,19.79,0,0,1,5.23-3.38,85,85,0,0,1-1.44,10c-.67,3.2-1.35,6.3-2.05,9.28s-1.29,5.83-1.78,8.56a36.4,36.4,0,0,0-.62,7.77A3.4,3.4,0,0,0,18.62,51a8.79,8.79,0,0,0,1.9,1.66,8.14,8.14,0,0,0,2.11,1,2.34,2.34,0,0,0,1.56.06,2.78,2.78,0,0,0,.66-.44,9.84,9.84,0,0,0,.76-.7c.26-.25.49-.51.71-.76l.52-.62a10.85,10.85,0,0,0,1.24-2.45q.72-1.8,1.74-4.51T32.21,38q1.36-3.52,3.2-7.66c-.08,1.26-.18,2.35-.3,3.29s-.24,1.79-.38,2.57-.27,1.52-.42,2.24-.29,1.5-.44,2.32-.28,1.77-.4,2.81-.23,2.27-.34,3.69a3.41,3.41,0,0,0,.82,2.1,7.33,7.33,0,0,0,1.83,1.59,9.37,9.37,0,0,0,2.1,1,4.48,4.48,0,0,0,1.7.24,2.86,2.86,0,0,0,1.67-.94,4.87,4.87,0,0,0,1-1.59c.11-.37.37-1.23.8-2.58s1-3,1.66-5,1.48-4.21,2.39-6.66,1.89-4.93,3-7.47,2.16-5,3.32-7.48a73.79,73.79,0,0,1,3.59-6.69A35.09,35.09,0,0,1,60.65,8.6Z"/><path class="cls-1" d="M61.83,9.78a8.81,8.81,0,0,1,3.3-2.41,1.78,1.78,0,0,0,1.23-1.61c.29-3-6-6-8.47-5.19-1.7.54-3.06,2.94-4,4.33a62.49,62.49,0,0,0-4.48,8.49,182.67,182.67,0,0,0-7,18.25c-1,3-1.93,6-2.86,9.08-.38,1.27-.77,2.53-1.15,3.8-.19.62-.41,1.26-.56,1.89-.09.38-.68,1.31-.15.89l2.85,1.18c-.53-6.08,1.48-12.38,2.3-18.38.29-2.13,1.06-4.86-.28-6.77-1.2-1.71-4.15-3.49-6.32-3.33-1.52.12-2,.86-2.32,2.22a59.53,59.53,0,0,1-2.49,7.7c-1.42,3.56-3,7.07-4.59,10.53-.71,1.5-1.43,3-2.18,4.45-.24.47-2.17,3.53-1.22,3.47l1.61,1.23c-.92-4.36,1.6-10.29,2.67-14.53C29.07,30,30.39,25,31.19,19.78c.55-3.48,1.75-8.72-1.21-11.44-3.36-3.09-6.29-2.44-10-.76C11.3,11.43,3.37,19.06.69,28.32-.29,31.75-.57,36,2.23,38.66c1.75,1.66,6,5,8.44,3a1.69,1.69,0,0,0,.43-1.62c-1.94-10,4.27-21,13.37-25.37L22,13.25c-.73,7.88-2.78,15.46-4.39,23.19-1,4.92-3.58,12.71.77,16.63,4.16,3.74,8.35,2.38,10.72-2.43,3.07-6.24,5-13.11,7.8-19.47l-3.12-.85c-.26,3.68-1.06,7.21-1.62,10.84-.39,2.49-1.26,5.81-.13,8.17,2.17,4.59,9.32,6.33,11.68,1.12,1.14-2.52,1.74-5.39,2.63-8,1.26-3.66,2.59-7.29,4-10.89,3-7.5,6.18-15.59,11.51-21.78,1.4-1.62-1-4-2.36-2.36C51.91,16.19,47.83,28.19,44,39Q42.56,43,41.28,47c-.44,1.39-.45,2.38-1.92,2.89-2,.69-4.23-1-4.49-3-.36-2.69.66-6,1.16-8.57a69.34,69.34,0,0,0,1.06-8c.11-1.59-2.45-2.35-3.12-.84C31.89,34.18,30,39,28.21,43.77c-.82,2.17-1.48,5.07-3.08,6.84s-2.53,1.66-4.25.21c-1.5-1.26-1.51-2.29-1.47-4.12.14-5.78,1.87-11.54,3.12-17.15a128.43,128.43,0,0,0,2.77-16.3c.13-1.38-1.48-1.93-2.51-1.45-10.52,5-17.13,17.8-14.92,29.14l.43-1.62c.45-.37-3.4-2.7-3.71-3C3.22,34.84,3.21,32.9,3.52,31A23.57,23.57,0,0,1,8.63,20.45a34.2,34.2,0,0,1,9.18-8c3.08-1.85,7.76-5.13,9.93-.72,1.64,3.34.14,8.1-.57,11.62-.69,3.36-1.55,6.67-2.39,10-1.31,5.22-4,11.75-2.88,17.17a1.66,1.66,0,0,0,1.61,1.22c1.51-.08,2.14-1.48,2.81-2.66,1.36-2.41,2.55-4.94,3.73-7.45a134.67,134.67,0,0,0,6.54-15.89,27.49,27.49,0,0,0,.74-2.8v-.69c-.6,1.26-.13,2,1.43,2.07,2.3,1.89.81,5.89.42,8.33-.84,5.16-2.37,10.6-1.91,15.86a1.7,1.7,0,0,0,2.85,1.18c.85-.66,1.05-2.49,1.32-3.42.56-1.89,1.14-3.76,1.71-5.64,1.46-4.77,3-9.53,4.66-14.22A127.81,127.81,0,0,1,54,11.57a46.83,46.83,0,0,1,3.1-5.42c.5-.73,1.18-2.18,2.21-2.25.24,0,3.75,1.56,3.72,1.86l1.22-1.61a12.43,12.43,0,0,0-4.77,3.27C58,9,60.34,11.33,61.83,9.78Z"/><path class="cls-1" d="M113.2,31.83a.83.83,0,0,0-.56-.16.75.75,0,0,0-.55.3c-.18.45-.38,1-.58,1.54a16.09,16.09,0,0,1-.74,1.78c-.29.64-.57,1.27-.82,1.87s-.5,1.22-.74,1.86a9.2,9.2,0,0,1-2.57,4,19,19,0,0,0,1-2.65,16.38,16.38,0,0,0,.58-2.78,15.61,15.61,0,0,0,.06-2.73,11.43,11.43,0,0,0-.46-2.5,5.62,5.62,0,0,0-.71-1.43,7,7,0,0,0-1.1-1.24,12.44,12.44,0,0,0-2.76-1.9,4.37,4.37,0,0,0-1.23-.48,3,3,0,0,0-1.22-.08,2,2,0,0,0-1,.5,8.24,8.24,0,0,0-1,1A11.39,11.39,0,0,0,98,29.94c-.26.42-.49.76-.68,1a13.62,13.62,0,0,0-1.2-1.36,15.7,15.7,0,0,0-1.42-1.26,6.41,6.41,0,0,0-1.24-.78c-.37-.16-.57-.15-.63,0a3.66,3.66,0,0,0-.2.76q-.15.77-.42,2c-.1.49-.22,1-.33,1.59l0,0c-.51,1.09-1,2.25-1.58,3.46s-1.1,2.41-1.66,3.57-1.12,2.25-1.67,3.25a17.62,17.62,0,0,1-1.58,2.46c-.32,0-.44-.27-.36-.82a14.14,14.14,0,0,1,.4-1.82h0q.28-1.12.72-2.49c.29-.91.58-1.77.86-2.6s.52-1.55.7-2.17a5.24,5.24,0,0,0,.28-1.2,4.48,4.48,0,0,0-1-1.46,15.17,15.17,0,0,0-1.62-1.59,12.15,12.15,0,0,0-1.56-1.12c-.47-.27-.75-.28-.83,0s-.25.6-.44,1.16a3.49,3.49,0,0,0-.5-.62c-.2-.2-.43-.42-.7-.66A19.91,19.91,0,0,0,79.21,28a4.72,4.72,0,0,0-2.11-.52,5.4,5.4,0,0,0-3,.68,8.67,8.67,0,0,0-2.49,2.06,13.18,13.18,0,0,0-1.9,3,15.93,15.93,0,0,0-.84,2.17l-1,2c-.49,1-1,2-1.5,3S65.46,42.25,65,43a16.54,16.54,0,0,1-1.19,1.82c-.34.46-.6.67-.76.64-.37.14-.6-.06-.68-.6a5.61,5.61,0,0,1,.44-2.4c.22-.64.47-1.36.76-2.17s.61-1.62,1-2.46.65-1.66,1-2.47.57-1.53.8-2.18.4-1.2.52-1.62.14-.69.06-.77a5.15,5.15,0,0,0-.54-1.32,4,4,0,0,0-1.18-1.4,1.27,1.27,0,0,0-.73-.1c-.37,0-.81,0-1.32.08s-1,.06-1.54.06A6.46,6.46,0,0,1,60.23,28a1.19,1.19,0,0,1-.54-.3,5,5,0,0,1-.35-.38,2.11,2.11,0,0,1,0-1.19,17.68,17.68,0,0,1,.55-2c.24-.76.51-1.52.82-2.29a11.6,11.6,0,0,1,.9-1.86,1.36,1.36,0,0,0,.06-1.3,4.66,4.66,0,0,0-.84-1.3,6.47,6.47,0,0,0-1.12-1,2.91,2.91,0,0,0-.83-.44,1.55,1.55,0,0,0-.38-.12.82.82,0,0,0-.52.14,3.35,3.35,0,0,0-.72.66,12,12,0,0,0-1,1.45,6.3,6.3,0,0,0-.8,2.16,9.39,9.39,0,0,0-.12,2.61,12.25,12.25,0,0,0,.56,2.74,9.42,9.42,0,0,0,1.24,2.55c-.29.77-.58,1.58-.86,2.42s-.52,1.55-.7,2.11a1.14,1.14,0,0,0,.12.68,1.2,1.2,0,0,0,.4.48.85.85,0,0,0,.54.14.75.75,0,0,0,.54-.3c.19-.45.44-1,.76-1.72s.66-1.35,1-2a3.13,3.13,0,0,0,.72.46,3.9,3.9,0,0,1,.51.26.52.52,0,0,1,.22.28.78.78,0,0,1-.08.44,44,44,0,0,0-1.73,5.1,31.61,31.61,0,0,0-.82,4.08,17.1,17.1,0,0,0-.14,3.07,8.53,8.53,0,0,0,.32,2,2.19,2.19,0,0,0,.82,1.13,9,9,0,0,0,1.47.94,12.55,12.55,0,0,0,1.64.72,7.45,7.45,0,0,0,1.36.38A2.21,2.21,0,0,0,65,48.14,10.92,10.92,0,0,0,66.76,46a24.11,24.11,0,0,0,1.63-3c.06.26.13.52.21.77a6,6,0,0,0,1.81,2.65,13.69,13.69,0,0,0,2.72,1.88,4.57,4.57,0,0,0,1.23.48,3.22,3.22,0,0,0,1.22.08,1.84,1.84,0,0,0,1-.52,9.15,9.15,0,0,0,1-1.1c.34-.42.64-.82.92-1.22s.52-.73.71-1,.41-.6.6-.92.37-.65.56-1q0,.31.06.6a2.68,2.68,0,0,0,.1.6,9,9,0,0,0,.34,1.83,5.45,5.45,0,0,0,.72,1.54,3.91,3.91,0,0,0,1.12,1.1,3,3,0,0,0,1.55.46,2.43,2.43,0,0,0,1.76-.82,11.12,11.12,0,0,0,1.8-2.28,31.57,31.57,0,0,0,1.73-3.21l.3-.67c0,.14,0,.27-.08.43-.18.87-.38,1.86-.6,3s-.46,2.3-.71,3.53-.45,2.38-.64,3.45-.32,2-.42,2.77a5.75,5.75,0,0,0-.06,1.48,4.8,4.8,0,0,0,.92,1.44,14.84,14.84,0,0,0,1.53,1.54,7.54,7.54,0,0,0,1.46,1c.44.22.7.22.78,0a2.45,2.45,0,0,0,.2-.68c.08-.38.17-.84.26-1.39L92.89,57c.14-.71.28-1.45.44-2.23h0l1.52-8.13a1.18,1.18,0,0,0,.32.28,15,15,0,0,0,2.08,1.22,5.86,5.86,0,0,0,2.09.58,5.47,5.47,0,0,0,2.92-.64,8.61,8.61,0,0,0,2.45-2,6.93,6.93,0,0,0,2.68-1,5.06,5.06,0,0,0,1.89-1.78c.45-.73.93-1.57,1.44-2.51a14.6,14.6,0,0,0,1-2l.81-2q.39-1.05.72-2c.21-.64.4-1.2.56-1.68a1.31,1.31,0,0,0-.12-.7A1.4,1.4,0,0,0,113.2,31.83ZM80.79,38.5c-.51.78-1.07,1.58-1.68,2.43s-1.22,1.61-1.81,2.3S76.19,44.51,75.72,45a2.5,2.5,0,0,1-1,.75.62.62,0,0,1-.71-.39,3.4,3.4,0,0,1-.28-1.12,8.18,8.18,0,0,1,0-1.4c0-.49.09-.93.14-1.3a9.67,9.67,0,0,1,.45-2,20.44,20.44,0,0,1,.9-2.32,25.27,25.27,0,0,1,1.2-2.31,15.19,15.19,0,0,1,1.36-2,7.34,7.34,0,0,1,1.39-1.36,1.66,1.66,0,0,1,1.2-.43c.37.08.57.36.6.83a4.74,4.74,0,0,1-.2,1.56,11.34,11.34,0,0,1-.64,1.7,8,8,0,0,1-.68,1.21c-.24.26-.16.42.26.46A3.76,3.76,0,0,0,81,36.7Zm16.53,6.09a1.7,1.7,0,0,1-1.26.44q-.56-.08-.6-.78a4.71,4.71,0,0,1,.2-1.56A10,10,0,0,1,96.3,41,7.49,7.49,0,0,1,97,39.78c.14-.18.12-.32-.06-.4a1.33,1.33,0,0,0-.74,0c0-.27.11-.53.16-.78s.11-.53.16-.82l.36-1.6a25.73,25.73,0,0,0,.62,3.8,11.26,11.26,0,0,0,1.27,3.21A7.49,7.49,0,0,1,97.32,44.59Zm5.37-11.26c0,.51-.08,1-.14,1.32a11.38,11.38,0,0,1-.76,3,22.92,22.92,0,0,1-1.56,3.29,14.43,14.43,0,0,1-1.16-4.39,10.61,10.61,0,0,1,.56-4.19A15.38,15.38,0,0,1,100.85,31a2,2,0,0,1,.82-.56.7.7,0,0,1,.74.4,3.11,3.11,0,0,1,.28,1.11A8.41,8.41,0,0,1,102.69,33.33Z"/><path class="cls-1" d="M113.64,30.22c-2.08-.6-2.9.69-3.59,2.44-1.16,2.94-2.32,7-4.59,9.23l2.63,2c2.22-4.94,3.31-11.62-1.2-15.63-1.5-1.34-3.9-3-6.06-2.67-2.39.35-3.73,2.69-5,4.51l2.62-.34c-1.69-2.07-6.14-6.44-7.48-1.87-.24.84-.22,2.35-.37,2.88a34.47,34.47,0,0,1-2,4.25,49.47,49.47,0,0,1-4.7,8.83l2.28-.6-.33-.2.83,1.44a5.66,5.66,0,0,1,.31-2l-1.61,1.23h0A1.7,1.7,0,0,0,87,42.51c1-3.77,4.12-8.15,1.17-11.54-2.26-2.61-5.71-5.2-7.24-.85l2.79-.74a8.37,8.37,0,0,0-12.9-.7c-1.9,2-2.75,4.43-3.85,6.9-.41.92-3.55,8.26-4.36,8.17L64.23,45c-.66-1.58,1.19-4.83,1.75-6.28a53.44,53.44,0,0,0,2.23-6c.58-2.24-.12-5.37-2.61-6.27-1.06-.39-3.25.53-4,0-1.4-1,1.53-5.33,1.77-6.38.52-2.33-1.54-4.84-3.67-5.66-2.46-.94-4.23,1.36-5.19,3.41-1.5,3.2-.64,6.28.31,9.45.59,2-.63,2.84-.82,4.89a3.09,3.09,0,0,0,1,2.79c3,2.47,4.49-2.36,5.47-4.18l-2.29.59q.57.34,1.11.75l-.43-1.63c-.88,4.82-5.76,13.1-1.2,17.46,1.48,1.41,4.47,2.82,6.53,2.43,2.89-.55,4.59-4.21,5.72-6.55l-3-.4c.91,3.32,4.51,7,8.21,7.11,3.31.06,5.5-4.1,6.88-6.58l-3.11-.84c.3,3.06,1.08,7,4.7,7.68,4.16.76,6.54-4.7,7.89-7.69l-3-1.29c-.71,3.63-1.51,7.25-2.11,10.91-.45,2.67-.9,4.61,1,6.8,1.07,1.26,3.57,4,5.54,3s1.91-5.6,2.27-7.35a1.7,1.7,0,0,0-1.62-2.12h0l1.61,2.12L96.43,47l-2.79.74c2.18,1.91,5.22,3.14,8.11,2.26a13,13,0,0,0,3.36-2c1.28-.85,2.79-1.19,4-2.19,2.26-1.83,3.51-5,4.54-7.67,1-2.44,2.71-5.25.72-7.53C113,29,110.61,31.39,112,33c.26.3-1.43,3.91-1.58,4.27a21.09,21.09,0,0,1-2.63,5.13c-1.12,1.41-2.67,1.61-4.14,2.35-1,.5-1.65,1.72-2.81,2.06A5.48,5.48,0,0,1,96,45.42a1.68,1.68,0,0,0-2.79.73l-1.53,8.14A1.7,1.7,0,0,0,93.3,56.4h0l-1.61-2.11c-.27,1.38-.2,4.4-1,5.49.9-1.17-.42-1.56-1-2.44a2.78,2.78,0,0,1-.48-2.58c.55-4,1.5-8,2.29-12.06.34-1.73-2.22-3.12-3-1.29-.64,1.41-1.67,4.24-3,5.19-2.66,1.95-3.22-1.61-3.41-3.49-.16-1.54-2.24-2.41-3.11-.84-.68,1.21-1.81,3.61-3,4.35-2.37,1.44-5.38-2-6-4.08a1.69,1.69,0,0,0-3-.4c-1.21,2.49-2.69,6.1-5.88,4.12-2.9-1.8-1.69-6.08-1-8.8.48-1.89,2.05-4.41,2-6.31C62,29.64,61,29.23,59.79,28.48a1.7,1.7,0,0,0-2.29.6,9.06,9.06,0,0,0-1,2l-.43,1,1.43.1a12.91,12.91,0,0,0,1.25-3.58c.15-2.21-1.8-4.2-1.78-6.63,0-1.05.37-3.61,1.49-4.14.74-.35,1.46,1.18,1.28,2.17-.42,2.38-2.44,4.62-2.11,7.18a3,3,0,0,0,2.46,2.55c2.19.55,5.5-1,4.75,2.65-.5,2.42-1.84,4.84-2.71,7.16-.71,1.92-2,4.36-1.12,6.41a1.81,1.81,0,0,0,1.61,1.23c3.23.35,5.16-5.6,6.27-7.83,2.2-4.43,6.19-15.33,12.48-7.53.85,1.06,2.42.33,2.79-.73-.41,1.17,1.27,1.46,1.66,2.32.58.15.67.49.25,1-.16.53-.33,1.06-.51,1.58-.61,1.89-1.26,3.75-1.77,5.67L85.4,40.4h0a1.69,1.69,0,0,0-1.61,1.22c-.43,1.69-1,3.48.73,4.54a1.71,1.71,0,0,0,2.28-.6c2.64-3.6,4.38-8,6.13-12a12.15,12.15,0,0,0,1.24-4.28c.07-.34.14-.67.22-1-1.37.54-1.59,1-.66,1.48.4.79,1.82,1.69,2.43,2.44a1.7,1.7,0,0,0,2.63-.34c.66-1,1.5-2.79,2.86-2.84,1.16,0,3.19,1.74,3.85,2.55,2.33,2.87,1.09,7.71-.26,10.71-.74,1.65,1.18,3.43,2.62,2A13.92,13.92,0,0,0,111,39c.51-1.27,1.09-2.5,1.62-3.76.18-.42.35-.85.5-1.28.55-.89.42-1.06-.37-.51A1.67,1.67,0,0,0,113.64,30.22Z"/><path class="cls-1" d="M79.35,37.66c-.84,1.25-1.7,2.49-2.64,3.67-.41.51-1.47,1.32-1.69,2-.76.46-.63.82.4,1.09a6.88,6.88,0,0,1,0-1.57,12,12,0,0,1,.42-2.52,18.26,18.26,0,0,1,2.71-5.64,7.85,7.85,0,0,1,1.13-1.37c-.68-.55-1-.2-1,1-.31.67-.72,1.23-1,1.92a1.7,1.7,0,0,0,1.17,2,4.51,4.51,0,0,0,2.6,0L79.36,36.7l-.24,1.8c-.28,2.12,3.06,2.1,3.34,0l.24-1.8c.16-1.17-1.19-1.79-2.11-1.61h-.84l1.17,2.06c.75-2,3.66-7.71-.85-7.69-3.69,0-6.31,6.38-7.25,9.21-.72,2.15-2,7.55,1,8.61,3.26,1.16,7-5.85,8.39-7.93C83.43,37.55,80.54,35.88,79.35,37.66Z"/><path class="cls-1" d="M96.48,43.15l-.29.15,1,.77c-.67-.87,1.17-3.18,1.49-4.08a1.69,1.69,0,0,0-.43-1.63,2.39,2.39,0,0,0-2.07-.69l1.61,2.12c.22-1.08.44-2.14.68-3.21l-3.28-.44A19.49,19.49,0,0,0,97.3,44l.27-2a9.73,9.73,0,0,1-1.43,1.44c-1.67,1.36.71,3.71,2.36,2.36a9.73,9.73,0,0,0,1.43-1.44,1.74,1.74,0,0,0,.26-2,15.57,15.57,0,0,1-1.66-6.17c-.17-1.75-2.83-2.42-3.28-.45-.24,1.07-.46,2.14-.68,3.21A1.69,1.69,0,0,0,96.18,41l-.29-.29-.43-1.62c-.66,1.85-2.19,3.64-1.57,5.8S96.59,47,98.17,46C100,44.9,98.31,42,96.48,43.15Z"/><path class="cls-1" d="M101,33.33a16.65,16.65,0,0,1-2.23,6.73l3,.4c-.92-2.33-2.43-7.17.68-8.61l-1.29.16c-.27-.4-.34-.35-.21.16a4.5,4.5,0,0,1,0,1.16c-.08,2.15,3.26,2.14,3.34,0,.06-1.42,0-3.47-1.4-4.29s-2.89.27-3.87,1.35c-2.66,2.94-1.81,7.6-.47,11a1.69,1.69,0,0,0,3,.4,20.67,20.67,0,0,0,2.69-8.42C104.56,31.19,101.22,31.2,101,33.33Z"/><path class="cls-1" d="M163.62,4.75a12.5,12.5,0,0,0-1-1.86c-.36-.58-.68-.91-.94-1a46.59,46.59,0,0,0-9.3.54,51,51,0,0,0-9,2.31A55.5,55.5,0,0,0,135,8.58a61.31,61.31,0,0,0-14.29,11,54.53,54.53,0,0,0-5.43,6.65c0,.16.07.39.38.67a8.93,8.93,0,0,0,1.2.88c.5.31,1.05.61,1.65.92a16.18,16.18,0,0,0,1.74.78,11.65,11.65,0,0,0,1.46.48c.42.11.68.11.79,0a63.44,63.44,0,0,1,9.62-10.94,46.66,46.66,0,0,1,12-7.86c-1.26,2.78-2.46,5.39-3.63,7.82s-2.24,4.87-3.22,7.31A78.49,78.49,0,0,0,134.64,34a67.74,67.74,0,0,0-1.86,8.76,1.17,1.17,0,0,0,.38.74,6.88,6.88,0,0,0,1,.9,49.31,49.31,0,0,0-6.35,2.51,41.61,41.61,0,0,0-5.39,3c-.11.14-.07.34.12.61a5.73,5.73,0,0,0,.78.88c.33.32.71.65,1.14,1a12.76,12.76,0,0,0,1.28.92,11,11,0,0,0,1.15.64,1.06,1.06,0,0,0,.74.16A25,25,0,0,1,131.76,52a35,35,0,0,1,4.54-1.52,43.16,43.16,0,0,1,4.81-1c1.63-.24,3.26-.4,4.9-.48.16-.05.22-.24.18-.58a5.11,5.11,0,0,0-.37-1.2,16,16,0,0,0-.74-1.51,16.22,16.22,0,0,0-.92-1.48,7.93,7.93,0,0,0-.92-1.1,1.25,1.25,0,0,0-.72-.42q-.65,0-1.26.12L140,43a74.94,74.94,0,0,1,1.51-7.82q.9-3.6,2.08-7.07t2.67-7c1-2.36,2.08-4.89,3.28-7.59a.91.91,0,0,0-.26-.64,7.85,7.85,0,0,0-.76-.87,12,12,0,0,0-1-.9c-.39-.29-.76-.55-1.1-.76A44.28,44.28,0,0,1,154.74,8a42.24,42.24,0,0,1,9.3-.5q.36-.09.18-.93A10.56,10.56,0,0,0,163.62,4.75Z"/><path class="cls-1" d="M165.06,3.91c-.76-1.64-1.5-3.25-3.34-3.68-2.45-.57-5.71.06-8.15.37a53.31,53.31,0,0,0-14.73,4.21,61.07,61.07,0,0,0-25,20.62,1.65,1.65,0,0,0,0,1.69c1.25,2.17,4.07,3.37,6.36,4.15,3.52,1.2,4.16-1.18,6.2-3.72A52.27,52.27,0,0,1,145,12.64l-2.28-2.28c-2.9,6.38-6.13,12.63-8.42,19.27a68,68,0,0,0-2.6,9.72c-.51,2.7-1,4.33,1.34,6.18l.74-2.79a52,52,0,0,0-12.15,5.7,1.75,1.75,0,0,0-.77,1.89c.47,2.33,4.58,5.73,7.05,5.4a9.14,9.14,0,0,0,2.61-1.35,28.8,28.8,0,0,1,5.1-2A46.59,46.59,0,0,1,146,50.63a1.73,1.73,0,0,0,1.61-1.22c.64-2.08-.84-4.42-2-6.06C144,41.07,142.65,41,140,41.28l1.61,2.11a91.36,91.36,0,0,1,6-21.31c.76-1.85,1.56-3.69,2.36-5.52.44-1,1.29-2.21,1.2-3.33-.15-1.93-2.51-3.44-4-4.39l-.4,3.05a43.65,43.65,0,0,1,15.46-2.76c3.61,0,4.27-1.44,3-4.82-.75-2-4-1.14-3.22.88.24.63.19,1.2.82.61-.25.23-2,0-2.39,0a45.66,45.66,0,0,0-4.81.41,47.56,47.56,0,0,0-9.75,2.46,1.69,1.69,0,0,0-.4,3.05c.76.5,1.87,1.06,2.06,2s-1.53,3.51-1.9,4.38c-1,2.37-2,4.75-2.89,7.16a87.43,87.43,0,0,0-4.41,17.22c-.14.93.42,2.25,1.61,2.11a3,3,0,0,1,3.24,1.13c.43.51,1.4,2.13,1.2,2.77L146,47.29a47.42,47.42,0,0,0-13.6,2.61c-1.29.48-3.93,2.44-5.2,2.31a6.07,6.07,0,0,1-3.16-2.77l-.77,1.89A48.28,48.28,0,0,1,134.62,46c1.08-.35,1.78-2,.74-2.79-1.65-1.33-.11-4.92.35-6.75a71.76,71.76,0,0,1,2.55-8.06c2.11-5.57,4.84-10.89,7.3-16.31a1.69,1.69,0,0,0-2.28-2.29c-9.16,4.29-16.39,11.21-22.21,19.4l1.45-.83c-1.67,0-4.92-1.42-5.78-2.9v1.69A57.83,57.83,0,0,1,137.4,9.2,51.38,51.38,0,0,1,150,4.6a45.19,45.19,0,0,1,7-1,12.46,12.46,0,0,1,3.5-.07c1,.38,1.16,1,1.63,2.05C163.09,7.54,166,5.84,165.06,3.91Z"/><path class="cls-1" d="M160.9,31.83a.84.84,0,0,0-.57-.16.75.75,0,0,0-.54.3l-1.1,2.5-1.26,2.93c-.43,1-.86,2-1.3,2.9s-.85,1.76-1.21,2.47a10.14,10.14,0,0,1-1,1.62c-.29.38-.51.48-.64.32a1.17,1.17,0,0,1-.2-.8,7.65,7.65,0,0,1,.2-1.52c.53-3.15,1.06-6,1.56-8.66s1-4.92,1.41-6.89h.44a1.46,1.46,0,0,0,.66-.37,1.58,1.58,0,0,0,.42-.58.9.9,0,0,0,0-.58.63.63,0,0,0-.48-.4,1.67,1.67,0,0,1-.34,0l-.34-.06.72-3.29c.19-.85.31-1.47.36-1.84a4.71,4.71,0,0,0-.94-1.46,14.22,14.22,0,0,0-1.61-1.59,10.45,10.45,0,0,0-1.58-1.12c-.48-.26-.76-.28-.84,0a3.5,3.5,0,0,0-.22.82c-.12.55-.28,1.25-.46,2.11s-.4,1.81-.62,2.86-.44,2.08-.63,3.07q-.36,0-.72-.06a6.7,6.7,0,0,1-.8-.1,1,1,0,0,0-.8.42,3,3,0,0,0-.54.92,1.92,1.92,0,0,0-.12.92.5.5,0,0,0,.5.47h2c-.08.37-.14.72-.18,1a5.64,5.64,0,0,1-.14.8c-.16.94-.39,2.13-.7,3.59s-.58,3-.82,4.59-.4,3.17-.48,4.71a12.25,12.25,0,0,0,.36,4,2.75,2.75,0,0,0,.62,1.13,6,6,0,0,0,2.27,1.58,5.1,5.1,0,0,0,1.16.34,2.24,2.24,0,0,0,1.78-.66A10.41,10.41,0,0,0,156,45.9a25.86,25.86,0,0,0,1.68-3.09c.53-1.16,1-2.34,1.5-3.53s.89-2.34,1.27-3.45.68-2,.92-2.82a1.42,1.42,0,0,0-.1-.7A1.26,1.26,0,0,0,160.9,31.83Z"/><path class="cls-1" d="M161.34,30.22c-2.73-.79-3.41,1.84-4.3,3.89-1.23,2.84-2.36,7.28-4.66,9.46l1.62-.43-.26,0,1.17,1.17c-.6-2.4.82-6.19,1.28-8.59q.8-4.22,1.69-8.4l-1.61,1.23c3.38,0,4.53-4.64.84-5.29l1.17,2.06c.42-1.91,1.53-4.52.91-6.42a9.79,9.79,0,0,0-5.13-4.94,2.11,2.11,0,0,0-2.93,1.23c-1.18,2.46-1.37,6.09-1.89,8.76l1.61-1.23c-2.26-.19-5.32,1-4.62,4,.48,2.07,2.47,1.91,4.14,1.91l-1.61-2.12c-.87,5-2.23,10.06-2.38,15.18-.11,3.79.83,7.15,4.78,8.41,4.32,1.38,6.81-3.81,8.25-7a79.29,79.29,0,0,0,3-7.84c.6-1.84.93-3-.36-4.59s-3.73.73-2.36,2.37a23.27,23.27,0,0,1-1.25,3.5,56.07,56.07,0,0,1-2.2,5.46c-1,2.08-4.13,7.69-6.25,3.22-1.28-2.69,0-7.44.51-10.16.46-2.56,1-5.1,1.45-7.67a1.69,1.69,0,0,0-1.61-2.11,5.06,5.06,0,0,0-1.29,0c-1.33.47,1.09.71,1.77.77a1.67,1.67,0,0,0,1.62-1.23c.29-1.52.61-3,.94-4.56.15-.67.38-3.77.9-4.09-1.07.65.24,2,.54,2.45s1,.92,1.16,1.41c.24,1-.73,3.36-.95,4.39a1.69,1.69,0,0,0,1.16,2.05c1.33.24.87-1.27.05-1.27a1.68,1.68,0,0,0-1.61,1.22q-1.12,5.24-2.08,10.49c-.48,2.61-1.55,5.65-.89,8.28a1.62,1.62,0,0,0,1.17,1.16c2.33.36,3.21-2.1,4.08-3.86.76-1.55,1.46-3.13,2.14-4.72.32-.73,2.11-4.09,1.37-4.3A1.67,1.67,0,0,0,161.34,30.22Z"/><path class="cls-1" d="M231.42,32.31a1.22,1.22,0,0,0-.42-.48.82.82,0,0,0-.56-.16.75.75,0,0,0-.54.3c-.19.45-.38,1-.58,1.54a18.28,18.28,0,0,1-.74,1.78c-.3.64-.57,1.27-.82,1.87s-.51,1.22-.75,1.86a9.19,9.19,0,0,1-2.56,4,17.76,17.76,0,0,0,1-2.65,15.47,15.47,0,0,0,.58-2.78,13.88,13.88,0,0,0,.06-2.73,10.87,10.87,0,0,0-.46-2.5A5.27,5.27,0,0,0,225,31a8,8,0,0,0-1.1-1.24,12.33,12.33,0,0,0-1.35-1.06,11.49,11.49,0,0,0-1.42-.84,4.2,4.2,0,0,0-1.22-.48,3,3,0,0,0-1.22-.08,2.11,2.11,0,0,0-1,.5,9.06,9.06,0,0,0-1,1,11.3,11.3,0,0,0-.88,1.18c-.27.42-.49.76-.68,1a13.62,13.62,0,0,0-1.2-1.36,14.51,14.51,0,0,0-1.43-1.26,6.13,6.13,0,0,0-1.24-.78c-.36-.16-.57-.15-.62,0a3,3,0,0,0-.2.76l-.42,2c-.18.82-.37,1.73-.58,2.75s-.42,2-.6,3-.36,1.89-.52,2.74-.27,1.52-.33,2-.16,1-.34,1.87-.37,1.86-.6,3-.46,2.3-.7,3.53-.45,2.38-.64,3.45-.31,1.86-.4,2.61c-.09-.16-.18-.33-.3-.53a5,5,0,0,1-.62-1.64,51.08,51.08,0,0,1-1-8.5,58,58,0,0,1,.29-7.89,58.77,58.77,0,0,1,1.18-7.16q.78-3.39,1.68-6.31t1.79-5.37c.58-1.63,1.09-3.08,1.52-4.33a1.42,1.42,0,0,0-.08-.9,9,9,0,0,0-.62-1.47c-.28-.53-.6-1.08-.94-1.64A12.33,12.33,0,0,0,207.11,8a4.79,4.79,0,0,0-1-.93c-.29-.18-.52-.17-.68,0q-1.08,2.65-2.55,6.48C201.93,16.18,201,19,200,22q-1.12,2.64-2.41,5.55c-.85,1.94-1.71,3.83-2.56,5.67s-1.69,3.59-2.51,5.23-1.53,3.07-2.16,4.29-1.14,2.15-1.55,2.8-.62.91-.68.75a4.39,4.39,0,0,1-.22-1.59,12.85,12.85,0,0,1,.24-2q.23-1.08.54-2.25c.22-.77.43-1.51.65-2.2s.41-1.32.6-1.88.32-1,.4-1.33c.26-1.09.57-2.32.92-3.66s.69-2.77,1-4.25.67-3,1-4.49.54-3,.75-4.37a36.77,36.77,0,0,0,.36-4,14.41,14.41,0,0,0-.22-3.23,3,3,0,0,0-1.09-1.56,9.61,9.61,0,0,0-1.88-1.22,6.74,6.74,0,0,0-1.88-.66c-.59-.11-1-.06-1.13.16a35.2,35.2,0,0,0-7.83,3.74,36.42,36.42,0,0,0-6.18,5,34.13,34.13,0,0,0-4.49,5.6A27.52,27.52,0,0,0,167,27.7a15.89,15.89,0,0,0-1,5,6.79,6.79,0,0,0,.88,3.79,3.76,3.76,0,0,0,.86,1c.44.39.94.77,1.48,1.16a17.93,17.93,0,0,0,1.73,1.08,11.54,11.54,0,0,0,1.58.76,2.14,2.14,0,0,0,1.06.2c.26,0,.3-.24.14-.62a9.64,9.64,0,0,1-.54-3.58,20.8,20.8,0,0,1,.64-4.73,33.41,33.41,0,0,1,1.81-5.28,28.36,28.36,0,0,1,7.09-9.84,19.79,19.79,0,0,1,5.23-3.38,63.31,63.31,0,0,1-1.36,9.08q-1,4.19-1.94,8c-.66,2.57-1.22,5-1.69,7.46a32.13,32.13,0,0,0-.58,7.25,3.49,3.49,0,0,0,.86,2.15,8.29,8.29,0,0,0,1.89,1.66,7,7,0,0,0,2.12,1,2.43,2.43,0,0,0,1.58,0,4.22,4.22,0,0,0,.63-.42,9.44,9.44,0,0,0,.78-.7l.72-.76c.21-.24.39-.44.52-.6a9.09,9.09,0,0,0,.88-1.36c.27-.51.58-1.19.94-2s.81-1.92,1.35-3.25,1.25-3,2.16-5a68.18,68.18,0,0,0-.7,7.32,32.28,32.28,0,0,0,.42,6.75,3.25,3.25,0,0,0,.54,1.19,9.49,9.49,0,0,0,1.42,1.64,16.42,16.42,0,0,0,2.23,1.7,13.34,13.34,0,0,0,3,1.41,8.78,8.78,0,0,0,1.51.4,2.63,2.63,0,0,0,0,.72,4.61,4.61,0,0,0,.92,1.44,14.76,14.76,0,0,0,1.52,1.54,7.89,7.89,0,0,0,1.47,1c.44.22.7.22.78,0a2.88,2.88,0,0,0,.2-.68c.08-.38.17-.84.26-1.39s.21-1.17.34-1.88.28-1.45.44-2.23h0l1.52-8.13a1.36,1.36,0,0,0,.32.28A15.09,15.09,0,0,0,215,48.1a5.81,5.81,0,0,0,2.08.58A5.48,5.48,0,0,0,220,48a8.75,8.75,0,0,0,2.45-2,7,7,0,0,0,2.68-1,5,5,0,0,0,1.88-1.78c.46-.73.94-1.57,1.45-2.51a17.38,17.38,0,0,0,1-2c.27-.67.53-1.35.8-2s.51-1.37.72-2,.4-1.2.56-1.68A1.15,1.15,0,0,0,231.42,32.31ZM215.13,44.59a1.72,1.72,0,0,1-1.26.44q-.57-.08-.6-.78a4.71,4.71,0,0,1,.2-1.56,10,10,0,0,1,.64-1.7,6.21,6.21,0,0,1,.68-1.21c.13-.18.11-.32-.06-.4a1.34,1.34,0,0,0-.74,0c0-.27.1-.53.16-.78s.1-.53.16-.82l.36-1.6a23.34,23.34,0,0,0,.62,3.8,11.56,11.56,0,0,0,1.26,3.21A7.47,7.47,0,0,1,215.13,44.59Zm5.37-11.26c0,.51-.09,1-.14,1.32a11.38,11.38,0,0,1-.76,3A24,24,0,0,1,218,40.91a14.77,14.77,0,0,1-1.17-4.39,10.8,10.8,0,0,1,.56-4.19A17,17,0,0,1,218.66,31a2,2,0,0,1,.82-.56.71.71,0,0,1,.74.4,3.11,3.11,0,0,1,.28,1.11A8.41,8.41,0,0,1,220.5,33.33Z"/><path class="cls-1" d="M232.6,31.13a2.5,2.5,0,0,0-4.31.39c-2,3.27-2.18,7.61-5,10.37l2.62,2c2.23-4.94,3.31-11.62-1.19-15.63-1.51-1.34-3.91-3-6.06-2.67-2.39.35-3.73,2.69-5,4.51l2.62-.34c-1.12-1.36-3.74-4.56-5.92-3.94s-2.12,4.68-2.46,6.31c-1.57,7.48-3.2,15.09-4.23,22.66l3-.4c-2.41-4.17-1.91-10.86-1.6-15.53A68,68,0,0,1,208.3,23.1c.75-2.39,1.6-4.74,2.43-7.1.53-1.53,1-2.59.49-4.17-.76-2.36-2.88-6.52-5.77-6.35a1.75,1.75,0,0,0-1.61,1.23c-2.77,6.82-4.92,13.87-7.91,20.6-1.54,3.47-3.13,6.92-4.81,10.33-.71,1.43-1.43,2.87-2.16,4.29-.28.53-1.69,2.92-1.23,2.78l2.05,1.16c-.63-2.59.74-5.69,1.52-8.16.61-1.94,1.11-3.9,1.61-5.88a111.51,111.51,0,0,0,2.94-14.59c.43-3.79.75-7.57-2.82-9.83-3.87-2.45-7-.84-10.75,1.1-8,4.13-15.53,11.85-17.55,20.84-.83,3.69-.56,7.39,2.5,9.89,1.82,1.48,5.42,4.35,7.74,2.44a1.67,1.67,0,0,0,.43-1.62c-2-10,4.28-21,13.38-25.37l-2.52-1.44c-.59,6.56-2.36,12.82-3.87,19.21-1,4.32-3.52,11.81-.48,15.77,2.63,3.42,6.79,4.51,9.85,1.33,3.29-3.41,4.57-8.72,6.47-12.94l-3-1.29c-.66,4.69-1.81,10.84-.13,15.45,1.35,3.7,6.12,6.26,9.7,7l-1.22-1.62c0,2.43,3.23,6.54,5.89,6.55,3.06,0,2.92-5.54,3.33-7.55a1.7,1.7,0,0,0-1.61-2.12h0l1.61,2.12L214.23,47l-2.79.74c5.11,4.46,9.69,1.67,14.57-1.3,2.31-1.41,3.59-4,4.67-6.4s2.81-5.55,2.35-8.22c-.36-2.11-3.58-1.21-3.22.89.2,1.17-1.15,3.51-1.56,4.53a20.78,20.78,0,0,1-2.64,5.13c-1.11,1.41-2.67,1.61-4.14,2.35-1,.5-1.64,1.72-2.81,2.06a5.49,5.49,0,0,1-4.86-1.4,1.69,1.69,0,0,0-2.79.73l-1.52,8.14a1.69,1.69,0,0,0,1.61,2.11h0l-1.61-2.11a42.21,42.21,0,0,0-.92,4.87c-.11,1.41.29-.29.22-.46-.36-1-1.94-1.29-2-2.52a1.72,1.72,0,0,0-1.23-1.61c-3.58-.76-7.36-3-7.76-6.9a48.25,48.25,0,0,1,.52-11.45c.24-1.67-2.19-3.19-3.05-1.29-1.47,3.27-2.61,6.82-4.31,10-1.09,2-2.71,4.17-5.09,2.53-2.68-1.84-2-5.13-1.61-8,1.31-8.86,4.46-17.26,5.26-26.22.13-1.38-1.48-1.94-2.51-1.45-10.51,5-17.13,17.8-14.91,29.14l.43-1.62c.49-.4-2.72-2.22-3.15-2.57-1.61-1.33-2-2.93-1.77-5,.3-3.5,2.14-6.93,4.1-9.78a33,33,0,0,1,8.44-8.35c2.35-1.62,6.68-4.7,9.49-4.15,9.06,1.77-4.66,31.15-3.16,37.27a1.69,1.69,0,0,0,2.06,1.17c2-.63,3.15-4.16,4-5.88,2-3.92,3.87-7.89,5.67-11.9,3.3-7.38,5.7-15.06,8.75-22.55l-1.61,1.22c.49,0,2.61,3.24,2.68,4.25.13,1.83-1.57,4.66-2.15,6.38A84.93,84.93,0,0,0,202.63,32a61.89,61.89,0,0,0-.94,12.6c.13,3.73.25,8.21,2.16,11.51.65,1.12,2.85,1.09,3.05-.4.77-5.65,2-11.26,3.09-16.87.47-2.55,1-5.09,1.53-7.62.11-.54,1-4,0-2.44-.68,1.05-.14.81.8,1.67a15.82,15.82,0,0,1,1.56,1.71,1.69,1.69,0,0,0,2.62-.34c.67-1,1.5-2.79,2.87-2.84,1.15,0,3.18,1.74,3.84,2.55,2.33,2.87,1.1,7.71-.25,10.71a1.68,1.68,0,0,0,2.62,2A14.18,14.18,0,0,0,228.81,39c.51-1.27,1.09-2.5,1.62-3.76.18-.42.35-.85.5-1.28.59-1,.36-1.12-.69-.46C231.66,35.11,234,32.74,232.6,31.13Z"/><path class="cls-1" d="M214.29,43.15l-.3.15,1,.77c-.66-.87,1.17-3.18,1.49-4.08a1.65,1.65,0,0,0-.43-1.63,2.36,2.36,0,0,0-2.06-.69l1.61,2.12c.21-1.08.44-2.14.68-3.21L213,36.14A19.49,19.49,0,0,0,215.11,44l.26-2A10.18,10.18,0,0,1,214,43.41c-1.67,1.36.7,3.71,2.36,2.36a9.67,9.67,0,0,0,1.42-1.44,1.71,1.71,0,0,0,.26-2,15.56,15.56,0,0,1-1.65-6.17c-.17-1.75-2.84-2.42-3.28-.45-.24,1.07-.47,2.14-.68,3.21A1.69,1.69,0,0,0,214,41l-.3-.29-.43-1.62c-.65,1.85-2.18,3.64-1.56,5.8S214.4,47,216,46C217.79,44.9,216.12,42,214.29,43.15Z"/><path class="cls-1" d="M218.83,33.33a16.51,16.51,0,0,1-2.24,6.73l3.06.4c-.93-2.33-2.43-7.17.67-8.61L219,32c-.26-.4-.33-.35-.2.16a4.5,4.5,0,0,1,0,1.16c-.09,2.15,3.25,2.14,3.34,0,.06-1.42,0-3.47-1.4-4.29s-2.9.27-3.87,1.35c-2.67,2.94-1.81,7.6-.47,11a1.69,1.69,0,0,0,3,.4,20.82,20.82,0,0,0,2.69-8.42C222.37,31.19,219,31.2,218.83,33.33Z"/><path class="cls-2" d="M60.59,8.47a9,9,0,0,1,3.63-2.68c.4-.06.54-.21.44-.46a2.79,2.79,0,0,0-.78-.91,13.38,13.38,0,0,0-1.53-1.06,12.59,12.59,0,0,0-1.8-.9A6.2,6.2,0,0,0,58.91,2a1,1,0,0,0-1,.32A23.27,23.27,0,0,0,54.44,7c-1.15,2-2.28,4.16-3.39,6.57s-2.18,5-3.21,7.66-2,5.34-2.88,8-1.71,5.11-2.45,7.49-1.37,4.45-1.9,6.22-1,3.14-1.25,4.14-.45,1.44-.48,1.31a15.6,15.6,0,0,1,0-3c.08-1.16.22-2.42.42-3.79s.44-2.78.71-4.27.52-3,.76-4.41.44-2.85.62-4.2.27-2.58.3-3.67a3.05,3.05,0,0,0-1.14-1.65,10.74,10.74,0,0,0-2-1.26,6.56,6.56,0,0,0-1.92-.62c-.59-.08-.92,0-1,.32v.92c-.22.91-.54,2-1,3.29s-1,2.67-1.56,4.17-1.24,3-1.92,4.63S29.76,38,29.06,39.52s-1.37,2.92-2,4.25-1.24,2.46-1.74,3.42-.93,1.7-1.27,2.21-.53.68-.58.52a4.47,4.47,0,0,1-.16-1.82c.05-.82.16-1.73.32-2.73s.36-2,.6-3.15.48-2.13.72-3.1.47-1.84.67-2.59.34-1.28.42-1.6c.26-1.1.57-2.32.92-3.67s.69-2.76,1-4.25.67-3,1-4.49.54-3,.74-4.37a36.5,36.5,0,0,0,.37-4A13.76,13.76,0,0,0,29.82,11,2.9,2.9,0,0,0,28.74,9.4a10,10,0,0,0-1.88-1.23A7.38,7.38,0,0,0,25,7.51c-.58-.11-1,0-1.12.16A35.67,35.67,0,0,0,16,11.42a36.42,36.42,0,0,0-6.18,5A34.07,34.07,0,0,0,5.35,22a28,28,0,0,0-2.76,5.59,16,16,0,0,0-1,5,6.77,6.77,0,0,0,.88,3.79,3.47,3.47,0,0,0,.86,1,17.38,17.38,0,0,0,1.48,1.17c.55.38,1.12.74,1.73,1.08a12.2,12.2,0,0,0,1.58.76,2.26,2.26,0,0,0,1.06.2c.26,0,.3-.25.14-.62a9.7,9.7,0,0,1-.54-3.59,21,21,0,0,1,.64-4.73,33.66,33.66,0,0,1,1.81-5.27,28.36,28.36,0,0,1,7.09-9.84,20.07,20.07,0,0,1,5.23-3.39,82.36,82.36,0,0,1-1.44,10q-1,4.81-2.05,9.28c-.69,3-1.29,5.84-1.78,8.56a37.21,37.21,0,0,0-.62,7.78,3.43,3.43,0,0,0,.88,2.14,8.65,8.65,0,0,0,1.91,1.67,7.94,7.94,0,0,0,2.1,1,2.34,2.34,0,0,0,1.56.06,2.78,2.78,0,0,0,.66-.44c.26-.22.51-.45.77-.7s.48-.51.7-.77l.52-.62A10.32,10.32,0,0,0,28,48.6q.72-1.82,1.74-4.51c.69-1.81,1.48-3.88,2.39-6.24s2-4.9,3.21-7.65c-.08,1.26-.18,2.35-.3,3.29s-.25,1.79-.38,2.56-.28,1.52-.43,2.25-.29,1.49-.44,2.32-.28,1.76-.4,2.81-.23,2.27-.34,3.68a3.44,3.44,0,0,0,.82,2.11,7.29,7.29,0,0,0,1.83,1.58,8.56,8.56,0,0,0,2.1,1,4.14,4.14,0,0,0,1.71.24,2.78,2.78,0,0,0,1.66-.94,4.77,4.77,0,0,0,1-1.58c.11-.38.37-1.24.8-2.59s1-3,1.67-5,1.47-4.21,2.38-6.65,1.89-4.94,2.95-7.48,2.16-5,3.32-7.47a75.2,75.2,0,0,1,3.59-6.7A35.64,35.64,0,0,1,60.59,8.47Z"/><path class="cls-2" d="M113.14,31.7a.89.89,0,0,0-.56-.16.83.83,0,0,0-.54.3c-.19.46-.38,1-.59,1.55a16.93,16.93,0,0,1-.74,1.78c-.29.64-.56,1.26-.82,1.86s-.5,1.23-.74,1.87A9.2,9.2,0,0,1,106.58,43a16.76,16.76,0,0,0,1-2.65,16.29,16.29,0,0,0,.58-2.79,15.52,15.52,0,0,0,.06-2.72,11.52,11.52,0,0,0-.46-2.51,5.52,5.52,0,0,0-.7-1.42A7.54,7.54,0,0,0,106,29.62a11.34,11.34,0,0,0-1.34-1.06,11.1,11.1,0,0,0-1.42-.85,4.92,4.92,0,0,0-1.23-.48,3.44,3.44,0,0,0-1.22-.08,2.13,2.13,0,0,0-1,.5,8.36,8.36,0,0,0-1,1,9.28,9.28,0,0,0-.88,1.18q-.41.62-.69,1A12.59,12.59,0,0,0,96,29.48a16.06,16.06,0,0,0-1.42-1.27,6.41,6.41,0,0,0-1.24-.78c-.36-.16-.57-.14-.62,0a2.68,2.68,0,0,0-.2.76c-.11.51-.25,1.17-.43,2-.1.49-.21,1-.33,1.58l0,0c-.5,1.1-1,2.25-1.58,3.47s-1.1,2.4-1.66,3.57-1.12,2.24-1.67,3.24a16.38,16.38,0,0,1-1.58,2.47c-.32,0-.44-.27-.36-.82a14.26,14.26,0,0,1,.4-1.83h0c.19-.74.43-1.57.72-2.48s.58-1.78.86-2.61.52-1.55.71-2.16a6.19,6.19,0,0,0,.28-1.2,4.74,4.74,0,0,0-1-1.47,15.09,15.09,0,0,0-1.62-1.58,10.68,10.68,0,0,0-1.56-1.12c-.47-.27-.74-.28-.82,0a9.48,9.48,0,0,0-.45,1.16,3.49,3.49,0,0,0-.5-.62c-.2-.2-.43-.42-.7-.66a20,20,0,0,0-2.14-1.25A4.86,4.86,0,0,0,77,27.39a5.57,5.57,0,0,0-3,.68,8.85,8.85,0,0,0-2.49,2.07,13.53,13.53,0,0,0-1.9,3,15.44,15.44,0,0,0-.84,2.17c-.31.64-.62,1.3-1,2-.49,1-1,2-1.5,3s-1,1.84-1.42,2.61a18.3,18.3,0,0,1-1.18,1.82c-.35.45-.61.67-.77.64-.37.13-.6-.07-.68-.6a5.65,5.65,0,0,1,.44-2.41c.22-.64.47-1.36.76-2.16s.61-1.62,1-2.47l1-2.46c.31-.8.57-1.53.8-2.19s.4-1.19.52-1.62.14-.68.06-.76a5.15,5.15,0,0,0-.54-1.32A4,4,0,0,0,65.1,28a1.35,1.35,0,0,0-.72-.1l-1.33.08c-.5,0-1,.06-1.54.06a6.46,6.46,0,0,1-1.34-.12,1,1,0,0,1-.54-.3,2.67,2.67,0,0,1-.34-.38,2,2,0,0,1,0-1.18,19.7,19.7,0,0,1,.54-2c.24-.77.51-1.53.82-2.29a13.59,13.59,0,0,1,.9-1.86,1.38,1.38,0,0,0,.06-1.31,4.81,4.81,0,0,0-.84-1.3,6.83,6.83,0,0,0-1.12-1,2.56,2.56,0,0,0-.83-.44,1.55,1.55,0,0,0-.38-.12.76.76,0,0,0-.52.14,3.35,3.35,0,0,0-.72.66,11.71,11.71,0,0,0-1,1.44,6.43,6.43,0,0,0-.8,2.17,9.32,9.32,0,0,0-.12,2.6,12.33,12.33,0,0,0,.56,2.75A9.51,9.51,0,0,0,57.08,28c-.29.78-.58,1.59-.86,2.43s-.52,1.54-.7,2.1a1.14,1.14,0,0,0,.12.68,1.17,1.17,0,0,0,.4.49.91.91,0,0,0,.54.14.83.83,0,0,0,.54-.3c.19-.46.44-1,.76-1.73s.66-1.35,1-2a3,3,0,0,0,.72.46,3.21,3.21,0,0,1,.5.26.49.49,0,0,1,.22.28.79.79,0,0,1-.08.44,43.91,43.91,0,0,0-1.73,5.09,31.73,31.73,0,0,0-.82,4.09,18,18,0,0,0-.14,3.07,9.18,9.18,0,0,0,.32,2,2.17,2.17,0,0,0,.82,1.12,10.3,10.3,0,0,0,1.47.95,12.55,12.55,0,0,0,1.64.72,8.65,8.65,0,0,0,1.36.38A2.21,2.21,0,0,0,64.94,48a10.72,10.72,0,0,0,1.76-2.15,24,24,0,0,0,1.63-3c.06.26.13.52.21.77a6,6,0,0,0,1.81,2.64,13.34,13.34,0,0,0,2.72,1.89,5.08,5.08,0,0,0,1.23.48,3.45,3.45,0,0,0,1.22.08,1.84,1.84,0,0,0,1-.52,8.56,8.56,0,0,0,1-1.11c.34-.41.65-.82.93-1.22s.51-.72.7-1,.41-.6.6-.92.37-.66.56-1q0,.32.06.6a3.75,3.75,0,0,0,.1.6A8.76,8.76,0,0,0,80.87,46a5.52,5.52,0,0,0,.72,1.55,3.91,3.91,0,0,0,1.12,1.1,3.17,3.17,0,0,0,1.55.46A2.51,2.51,0,0,0,86,48.3,11.22,11.22,0,0,0,87.83,46a34.74,34.74,0,0,0,1.72-3.2l.3-.68c0,.14,0,.28-.08.43-.17.87-.37,1.87-.6,3s-.46,2.3-.7,3.53-.46,2.38-.64,3.45-.33,2-.43,2.76a5.76,5.76,0,0,0-.06,1.48,4.58,4.58,0,0,0,.93,1.45,14.75,14.75,0,0,0,1.52,1.54,7,7,0,0,0,1.46,1c.44.23.7.22.78,0a2.33,2.33,0,0,0,.2-.68c.08-.37.17-.83.26-1.38s.21-1.18.35-1.89.28-1.45.44-2.22h0l1.52-8.14a1,1,0,0,0,.32.28A16.17,16.17,0,0,0,97.16,48a6.07,6.07,0,0,0,2.09.58,5.6,5.6,0,0,0,2.93-.64,8.58,8.58,0,0,0,2.44-2,7.15,7.15,0,0,0,2.69-1,5.11,5.11,0,0,0,1.88-1.78c.45-.74.93-1.57,1.44-2.51a17.42,17.42,0,0,0,1-2l.8-2c.26-.69.5-1.36.72-2l.56-1.69a1.16,1.16,0,0,0-.12-.7A1.4,1.4,0,0,0,113.14,31.7ZM80.73,38.38c-.51.77-1.07,1.58-1.68,2.42s-1.22,1.61-1.81,2.31-1.11,1.27-1.58,1.74a2.44,2.44,0,0,1-1,.74.6.6,0,0,1-.7-.38,3.23,3.23,0,0,1-.28-1.12,8.29,8.29,0,0,1,0-1.41c0-.49.08-.92.14-1.3a9.51,9.51,0,0,1,.44-2,20.57,20.57,0,0,1,.9-2.33c.36-.78.76-1.55,1.2-2.3a17.22,17.22,0,0,1,1.36-2,8,8,0,0,1,1.39-1.36,1.69,1.69,0,0,1,1.2-.42c.37.08.57.35.6.82a4.8,4.8,0,0,1-.2,1.57,10.35,10.35,0,0,1-.64,1.7,7.75,7.75,0,0,1-.68,1.2c-.24.27-.16.42.26.46A3.55,3.55,0,0,0,81,36.57Zm16.53,6.09a1.73,1.73,0,0,1-1.26.44q-.56-.07-.6-.78a4.8,4.8,0,0,1,.2-1.57,11.34,11.34,0,0,1,.64-1.7,7.75,7.75,0,0,1,.68-1.2c.14-.19.12-.32-.06-.4a1.24,1.24,0,0,0-.74,0c.06-.27.11-.53.16-.78s.11-.53.16-.83L96.8,36a24.82,24.82,0,0,0,.63,3.81A11.09,11.09,0,0,0,98.69,43,7.79,7.79,0,0,1,97.26,44.47Zm5.38-11.26c0,.5-.09.94-.14,1.32a11.48,11.48,0,0,1-.77,3,21.45,21.45,0,0,1-1.56,3.29A14.65,14.65,0,0,1,99,36.39a10.63,10.63,0,0,1,.56-4.19,15.09,15.09,0,0,1,1.22-1.36,1.93,1.93,0,0,1,.82-.56.71.71,0,0,1,.75.4,3.21,3.21,0,0,1,.28,1.1A8.52,8.52,0,0,1,102.64,33.21Z"/><path class="cls-2" d="M163.56,4.63a13.14,13.14,0,0,0-1-1.87c-.36-.57-.67-.9-.94-1a46.59,46.59,0,0,0-9.3.54,50.16,50.16,0,0,0-9,2.31A55.45,55.45,0,0,0,135,8.45,61,61,0,0,0,120.67,19.5a53,53,0,0,0-5.43,6.65c0,.16.08.38.38.66a7.77,7.77,0,0,0,1.21.88c.49.31,1,.62,1.64.93s1.18.56,1.74.78a15.36,15.36,0,0,0,1.47.48q.61.16.78,0a63.86,63.86,0,0,1,9.62-10.94,46.14,46.14,0,0,1,12-7.86c-1.25,2.78-2.46,5.38-3.62,7.82s-2.24,4.87-3.23,7.31a77.57,77.57,0,0,0-2.63,7.62,67.93,67.93,0,0,0-1.86,8.75,1.21,1.21,0,0,0,.38.75,6.88,6.88,0,0,0,1,.9,49.27,49.27,0,0,0-6.35,2.5,42.82,42.82,0,0,0-5.39,3q-.16.2.12.6a5.3,5.3,0,0,0,.78.88c.33.32.71.66,1.14,1s.86.65,1.28.92.81.48,1.15.64a1.11,1.11,0,0,0,.74.16,25.81,25.81,0,0,1,4.11-2.15,36.23,36.23,0,0,1,4.55-1.52,45,45,0,0,1,4.81-1q2.44-.36,4.89-.48c.16-.06.22-.25.18-.58a4.54,4.54,0,0,0-.36-1.21q-.3-.69-.75-1.5a15,15,0,0,0-.92-1.48,7.38,7.38,0,0,0-.92-1.1,1.17,1.17,0,0,0-.72-.43c-.43,0-.85.07-1.26.13l-1.31.16A77.1,77.1,0,0,1,141.4,35c.6-2.41,1.29-4.76,2.08-7.08s1.68-4.65,2.67-7,2.08-4.9,3.28-7.6a.92.92,0,0,0-.26-.64,8.87,8.87,0,0,0-.76-.86,9.35,9.35,0,0,0-1-.9,13,13,0,0,0-1.1-.76,44.29,44.29,0,0,1,8.41-2.27,43.5,43.5,0,0,1,9.3-.5c.24,0,.3-.36.18-.92A10.3,10.3,0,0,0,163.56,4.63Z"/><path class="cls-2" d="M160.84,31.7a.89.89,0,0,0-.56-.16.87.87,0,0,0-.55.3c-.32.72-.68,1.56-1.1,2.51l-1.26,2.92c-.43,1-.86,2-1.3,2.91s-.84,1.76-1.21,2.47a10.32,10.32,0,0,1-1,1.62c-.29.37-.5.48-.64.32a1.17,1.17,0,0,1-.2-.8,7.82,7.82,0,0,1,.2-1.53q.81-4.73,1.56-8.65t1.41-6.9h.44a1.35,1.35,0,0,0,.66-.36,1.67,1.67,0,0,0,.42-.58.9.9,0,0,0,0-.58.61.61,0,0,0-.48-.4l-.34,0-.34-.06c.29-1.34.53-2.43.72-3.29s.31-1.47.36-1.84a4.85,4.85,0,0,0-.94-1.47,14.91,14.91,0,0,0-1.6-1.58,11,11,0,0,0-1.59-1.12c-.48-.27-.76-.28-.84,0a3.3,3.3,0,0,0-.22.82c-.12.55-.27,1.25-.46,2.1s-.4,1.81-.62,2.87-.44,2.08-.62,3.07c-.24,0-.48-.05-.73-.06s-.5-.05-.8-.1a1,1,0,0,0-.8.42,2.86,2.86,0,0,0-.54.92,1.91,1.91,0,0,0-.12.92.49.49,0,0,0,.5.46h2c-.08.38-.14.72-.19,1a6.09,6.09,0,0,1-.14.81c-.16.93-.39,2.13-.7,3.58s-.58,3-.82,4.59-.4,3.18-.48,4.71a12.29,12.29,0,0,0,.36,4,2.83,2.83,0,0,0,.62,1.12,6.12,6.12,0,0,0,1,.93,7.28,7.28,0,0,0,1.23.66,5.67,5.67,0,0,0,1.16.34,2.24,2.24,0,0,0,1.78-.66A10.18,10.18,0,0,0,156,45.77a23.19,23.19,0,0,0,1.68-3.09c.53-1.16,1-2.33,1.5-3.52s.89-2.34,1.27-3.45.68-2.05.92-2.83a1.44,1.44,0,0,0-.1-.7A1.26,1.26,0,0,0,160.84,31.7Z"/><path class="cls-2" d="M231.37,32.18a1.33,1.33,0,0,0-.43-.48.87.87,0,0,0-.56-.16.83.83,0,0,0-.54.3c-.19.46-.38,1-.58,1.55s-.45,1.16-.74,1.78S228,36.43,227.7,37s-.5,1.23-.74,1.87A9.2,9.2,0,0,1,224.39,43a17.76,17.76,0,0,0,1-2.65,15.39,15.39,0,0,0,.58-2.79,13.79,13.79,0,0,0,.06-2.72,11,11,0,0,0-.46-2.51,5.22,5.22,0,0,0-.7-1.42,7.47,7.47,0,0,0-1.1-1.24,13.25,13.25,0,0,0-1.34-1.06,11.2,11.2,0,0,0-1.43-.85,4.85,4.85,0,0,0-1.22-.48,3.45,3.45,0,0,0-1.22-.08,2.13,2.13,0,0,0-1,.5,7.71,7.71,0,0,0-1,1,10.33,10.33,0,0,0-.88,1.18c-.27.41-.49.75-.68,1a12.59,12.59,0,0,0-1.2-1.36,17.61,17.61,0,0,0-1.42-1.27,6.45,6.45,0,0,0-1.25-.78c-.36-.16-.57-.14-.62,0a3.19,3.19,0,0,0-.2.76c-.11.51-.25,1.17-.42,2s-.37,1.73-.58,2.74-.42,2-.6,3-.36,1.89-.52,2.75-.27,1.52-.32,2-.17,1-.34,1.86-.38,1.87-.61,3-.46,2.3-.7,3.53-.45,2.38-.64,3.45-.31,1.86-.4,2.6l-.3-.52a5,5,0,0,1-.62-1.64,50.24,50.24,0,0,1-1-8.5,58.18,58.18,0,0,1,.28-7.9,58.92,58.92,0,0,1,1.18-7.15q.78-3.39,1.68-6.32t1.79-5.37c.58-1.63,1.09-3.07,1.52-4.33a1.42,1.42,0,0,0-.08-.9,8.13,8.13,0,0,0-.62-1.46c-.28-.54-.6-1.08-.94-1.64a11.45,11.45,0,0,0-1.07-1.49,4.46,4.46,0,0,0-1-.92c-.29-.19-.52-.17-.68,0q-1.08,2.64-2.54,6.47c-1,2.56-1.94,5.35-2.87,8.4q-1.12,2.66-2.41,5.55c-.85,1.94-1.71,3.83-2.56,5.68s-1.69,3.58-2.51,5.23-1.53,3.07-2.16,4.29-1.14,2.15-1.54,2.8-.63.9-.69.74a4.3,4.3,0,0,1-.22-1.58,13,13,0,0,1,.24-2c.15-.72.33-1.46.55-2.24s.42-1.51.64-2.2.41-1.33.6-1.89.32-1,.4-1.32c.27-1.1.57-2.32.92-3.67s.7-2.76,1-4.25.67-3,1-4.49.55-3,.75-4.37a36.37,36.37,0,0,0,.36-4,14.37,14.37,0,0,0-.22-3.23A3,3,0,0,0,193,9.4a9.66,9.66,0,0,0-1.88-1.23,7.45,7.45,0,0,0-1.88-.66c-.59-.11-1,0-1.13.16a35.89,35.89,0,0,0-7.83,3.75,36.42,36.42,0,0,0-6.18,5A33.48,33.48,0,0,0,169.66,22a27.58,27.58,0,0,0-2.77,5.59,16,16,0,0,0-1,5,6.77,6.77,0,0,0,.88,3.79,3.47,3.47,0,0,0,.86,1c.44.39.94.78,1.48,1.17s1.13.74,1.73,1.08a12.86,12.86,0,0,0,1.58.76,2.28,2.28,0,0,0,1.06.2c.26,0,.3-.25.14-.62a9.7,9.7,0,0,1-.54-3.59,21.53,21.53,0,0,1,.64-4.73,33.66,33.66,0,0,1,1.81-5.27,28.6,28.6,0,0,1,3-5.23,28.1,28.1,0,0,1,4.13-4.61,20.24,20.24,0,0,1,5.23-3.39,63.1,63.1,0,0,1-1.36,9.08q-1,4.18-1.94,8c-.66,2.56-1.22,5.05-1.69,7.45A32.85,32.85,0,0,0,182.3,45a3.49,3.49,0,0,0,.86,2.14,8.34,8.34,0,0,0,1.89,1.67,7.66,7.66,0,0,0,2.12,1,2.47,2.47,0,0,0,1.59,0,4.23,4.23,0,0,0,.62-.42c.25-.2.51-.44.78-.7s.51-.52.72-.76.39-.44.52-.61a8,8,0,0,0,.88-1.36c.27-.51.58-1.18.95-2s.8-1.93,1.34-3.25,1.25-3,2.16-5A67.94,67.94,0,0,0,196,43a32.32,32.32,0,0,0,.42,6.75A3.22,3.22,0,0,0,197,50.9a9.2,9.2,0,0,0,1.43,1.65,15.68,15.68,0,0,0,2.22,1.7,12.91,12.91,0,0,0,3,1.4,8.18,8.18,0,0,0,1.51.41,3,3,0,0,0,0,.71,4.52,4.52,0,0,0,.92,1.45,14.84,14.84,0,0,0,1.53,1.54,7,7,0,0,0,1.46,1c.44.23.7.22.78,0a2.72,2.72,0,0,0,.2-.68c.08-.37.17-.83.26-1.38s.21-1.18.34-1.89.28-1.45.44-2.22h0l1.53-8.14a1,1,0,0,0,.32.28A16.17,16.17,0,0,0,215,48a6.07,6.07,0,0,0,2.09.58,5.56,5.56,0,0,0,2.92-.64,8.61,8.61,0,0,0,2.45-2,7.11,7.11,0,0,0,2.68-1A5.22,5.22,0,0,0,227,43.13c.45-.74.93-1.57,1.44-2.51a19.12,19.12,0,0,0,1-2c.27-.67.54-1.35.8-2s.51-1.36.72-2,.4-1.2.57-1.69A1.33,1.33,0,0,0,231.37,32.18Zm-16.3,12.29a1.76,1.76,0,0,1-1.26.44q-.57-.07-.6-.78a4.8,4.8,0,0,1,.2-1.57,10.35,10.35,0,0,1,.64-1.7,7,7,0,0,1,.68-1.2c.13-.19.11-.32-.06-.4a1.24,1.24,0,0,0-.74,0c0-.27.11-.53.16-.78s.11-.53.16-.83l.36-1.6a24.8,24.8,0,0,0,.62,3.81A11.68,11.68,0,0,0,216.49,43,7.76,7.76,0,0,1,215.07,44.47Zm5.37-11.26c0,.5-.08.94-.14,1.32a11.42,11.42,0,0,1-.76,3A23.5,23.5,0,0,1,218,40.78a14.69,14.69,0,0,1-1.17-4.39,10.65,10.65,0,0,1,.57-4.19,15.09,15.09,0,0,1,1.22-1.36,1.87,1.87,0,0,1,.82-.56.7.7,0,0,1,.74.4,3,3,0,0,1,.28,1.1A8.52,8.52,0,0,1,220.44,33.21Z"/><path class="cls-1" d="M9.32,79.41,5.81,65.35H7.34l2.33,9.32L12,65.35h1.53L10,79.41Z"/><path class="cls-1" d="M14.81,65.35H21v1.51H16.32v2.32h3.6v1.48h-3.6v7.27H21v1.48H14.81Z"/><path class="cls-1" d="M27,65.35h1.51V79.41H27V70.66h-3v8.75H22.54V65.35h1.51v3.83h3Z"/><path class="cls-1" d="M32.38,65.35V79.41H30.87V65.35Z"/><path class="cls-1" d="M36.36,69.28a5.6,5.6,0,0,0-1,3.14,4.77,4.77,0,0,0,.47,2.17,5.84,5.84,0,0,0,3,3,5.17,5.17,0,0,0,2.17.45,3.2,3.2,0,0,0,.52,0v1.45a1.87,1.87,0,0,1-.52,0A6.9,6.9,0,0,1,38.34,79a7.11,7.11,0,0,1-3.81-3.81A6.9,6.9,0,0,1,34,72.42a7,7,0,0,1,.57-2.79,6.51,6.51,0,0,1,1.56-2.25,7.33,7.33,0,0,1,2.25-1.54,6.87,6.87,0,0,1,2.74-.54,1.87,1.87,0,0,1,.52,0v1.45a3.2,3.2,0,0,0-.52,0,5.4,5.4,0,0,0-2.67.67A5.3,5.3,0,0,0,36.36,69.28Z"/><path class="cls-1" d="M49.26,79.41H43V65.35h1.5V77.93h4.72Z"/><path class="cls-1" d="M50.7,65.35h6.23v1.51H52.21v2.32h3.6v1.48h-3.6v7.27h4.72v1.48H50.7Z"/><path class="cls-1" d="M64.89,79.41,61.38,65.35h1.53l2.32,9.32,2.33-9.32H69l2.33,9.32,2.32-9.32h1.53L71.68,79.41H71L68.3,68.54,65.58,79.41Z"/><path class="cls-1" d="M78,65.33a4.8,4.8,0,0,1,1.76.44,3.88,3.88,0,0,1,.76.47c.23.18.45.38.67.59a6.06,6.06,0,0,1,1,1.51,4.84,4.84,0,0,1,.35,1.76,5.27,5.27,0,0,1-.2,1.36,4.89,4.89,0,0,1-.6,1.26c-.13.18-.27.35-.42.53a3.72,3.72,0,0,1-.49.48,4.34,4.34,0,0,1-1.16.72.94.94,0,0,0,.12.18,1.91,1.91,0,0,1,.15.21l.16.26.19.31.59,1.16A2.77,2.77,0,0,0,82.58,78v1.51c-.27-.08-.52-.17-.72-.25a4.08,4.08,0,0,1-.55-.25,3,3,0,0,1-.79-.44,1.51,1.51,0,0,1-.49-.54l-.2-.36c-.06-.13-.13-.27-.2-.44l-.24-.59-.11-.22-.16-.3c-.13-.21-.31-.46-.52-.74l-.32-.32-.17-.17-.07,0L78,74.82H78v4.57H76.48V65.33Zm0,8a3.37,3.37,0,0,0,1.12-.29,3.51,3.51,0,0,0,1-.7,3.16,3.16,0,0,0,.68-1A2.86,2.86,0,0,0,81,70.1a3.72,3.72,0,0,0-.22-1.24,3.49,3.49,0,0,0-.67-1,3.43,3.43,0,0,0-1-.74,3.32,3.32,0,0,0-.58-.22,4.23,4.23,0,0,0-.62-.11Z"/><path class="cls-1" d="M87.26,65.35l3.51,14.06H89.23l-.47-1.92H85.08l-.47,1.92H83.08l3.48-14.06ZM88.37,76l-1.46-5.88L85.45,76Z"/><path class="cls-1" d="M93.56,79.41H92.05V65.35l1.51,0a4.31,4.31,0,0,1,1.71.42,5.57,5.57,0,0,1,1.43,1,4.85,4.85,0,0,1,1,1.49,4.88,4.88,0,0,1,0,3.58,4.36,4.36,0,0,1-1,1.51,5.52,5.52,0,0,1-1.42,1,4.74,4.74,0,0,1-1.74.42Zm0-6a3,3,0,0,0,1.18-.32,3.11,3.11,0,0,0,1-.72,4.2,4.2,0,0,0,.66-1,2.7,2.7,0,0,0,.25-1.21,2.91,2.91,0,0,0-.25-1.21,6.06,6.06,0,0,0-.66-1,4,4,0,0,0-1-.74,4.79,4.79,0,0,0-.57-.21,3,3,0,0,0-.61-.11Z"/><path class="cls-1" d="M98.65,76.79a3.57,3.57,0,0,0,2.4,1.17,2.27,2.27,0,0,0,.76-.15,1.69,1.69,0,0,0,.38-.19l.34-.23a2,2,0,0,0,.69-1.51,6.37,6.37,0,0,0-1.13-2.45l-1-1.43c-1.2-1.65-1.81-2.93-1.81-3.83a2.77,2.77,0,0,1,.79-2,2.7,2.7,0,0,1,2-.77,2.63,2.63,0,0,1,2.15,1.17l-1,.91a2,2,0,0,0-1.31-.62c-.8,0-1.21.37-1.21,1.12s.6,1.73,1.81,3.38q2.15,3.47,2.15,4.77a3.56,3.56,0,0,1-.27,1.34,2.93,2.93,0,0,1-.75,1.06,3.23,3.23,0,0,1-1.11.74,3.69,3.69,0,0,1-1.41.27,4.45,4.45,0,0,1-2.42-.79Z"/><path class="cls-1" d="M110.56,65.37a3.31,3.31,0,0,1,.52,0,7,7,0,0,1,2.77.54,7.33,7.33,0,0,1,2.25,1.54,7.24,7.24,0,0,1,1.53,2.22,6.88,6.88,0,0,1,.57,2.72,6.57,6.57,0,0,1-.54,2.67,7.3,7.3,0,0,1-1.53,2.25,6.85,6.85,0,0,1-2.25,1.56,7,7,0,0,1-2.8.56h-.52Zm1.51,12.51a4.31,4.31,0,0,0,1.85-.64,5.78,5.78,0,0,0,1.5-1.26,6,6,0,0,0,1-1.68,5.69,5.69,0,0,0,.34-1.93,5.16,5.16,0,0,0-.37-2,5.6,5.6,0,0,0-1-1.66,5.42,5.42,0,0,0-3.32-1.9Z"/><path class="cls-1" d="M119.83,65.35h6.23v1.51h-4.72v2.32H125v1.48h-3.61v7.27h4.72v1.48h-6.23Z"/><path class="cls-1" d="M126.63,76.79A3.57,3.57,0,0,0,129,78a2.37,2.37,0,0,0,.77-.15,1.85,1.85,0,0,0,.37-.19l.34-.23a2,2,0,0,0,.69-1.51,6.37,6.37,0,0,0-1.13-2.45L129,72c-1.2-1.65-1.81-2.93-1.81-3.83a2.74,2.74,0,0,1,.8-2,2.68,2.68,0,0,1,2-.77,2.63,2.63,0,0,1,2.15,1.17l-1,.91a2,2,0,0,0-1.31-.62c-.8,0-1.21.37-1.21,1.12s.6,1.73,1.81,3.38q2.15,3.47,2.15,4.77a3.56,3.56,0,0,1-.27,1.34,2.93,2.93,0,0,1-.75,1.06,3.23,3.23,0,0,1-1.11.74,3.69,3.69,0,0,1-1.41.27,4.45,4.45,0,0,1-2.42-.79Z"/><path class="cls-1" d="M135.5,65.35V79.41H134V65.35Z"/><path class="cls-1" d="M139.48,69.21a5.6,5.6,0,0,0-1,3.14,5,5,0,0,0,.37,1.9,5.3,5.3,0,0,0,1,1.7,5.78,5.78,0,0,0,1.49,1.31,3.88,3.88,0,0,0,1.85.67v-6h1.46l0,7.54a2.47,2.47,0,0,1-.54,0,7.07,7.07,0,0,1-4.93-2.07,6.83,6.83,0,0,1-1.55-2.28,6.42,6.42,0,0,1-.59-2.76,7,7,0,0,1,.56-2.8,6.82,6.82,0,0,1,1.55-2.25,7.13,7.13,0,0,1,2.25-1.53,6.82,6.82,0,0,1,2.73-.54,2.28,2.28,0,0,1,.52,0v1.46a1.93,1.93,0,0,0-.52,0,5.47,5.47,0,0,0-2.66.67A5.38,5.38,0,0,0,139.48,69.21Z"/><path class="cls-1" d="M147.39,65.35l3.81,10.21V65.35h1.51V79.41h-1.63l-2.87-7.66v7.66H146.7V65.35Z"/><path class="cls-1" d="M154.12,76.79A3.57,3.57,0,0,0,156.51,78a2.32,2.32,0,0,0,.77-.15,1.62,1.62,0,0,0,.37-.19l.35-.23a1.82,1.82,0,0,0,.49-.67,1.86,1.86,0,0,0,.2-.84,6.29,6.29,0,0,0-1.14-2.45l-1-1.43c-1.2-1.65-1.8-2.93-1.8-3.83a2.74,2.74,0,0,1,.79-2,2.68,2.68,0,0,1,2-.77,2.63,2.63,0,0,1,2.15,1.17l-1,.91a2,2,0,0,0-1.31-.62c-.81,0-1.21.37-1.21,1.12s.6,1.73,1.8,3.38c1.44,2.31,2.15,3.9,2.15,4.77a3.56,3.56,0,0,1-.27,1.34,2.79,2.79,0,0,1-.74,1.06,3.23,3.23,0,0,1-1.11.74,3.76,3.76,0,0,1-1.41.27,4.45,4.45,0,0,1-2.42-.79Z"/><path class="cls-1" d="M168.63,65.35l3.51,14.06H170.6l-.47-1.92h-3.68L166,79.41h-1.53l3.48-14.06ZM169.74,76l-1.46-5.88L166.82,76Z"/><path class="cls-1" d="M174.11,65.35l3.81,10.21V65.35h1.51V79.41H177.8l-2.87-7.66v7.66h-1.51V65.35Z"/><path class="cls-1" d="M181.75,65.37a3.31,3.31,0,0,1,.52,0,7,7,0,0,1,2.77.54,7.33,7.33,0,0,1,2.25,1.54,7.24,7.24,0,0,1,1.53,2.22,6.88,6.88,0,0,1,.57,2.72,6.57,6.57,0,0,1-.54,2.67,7.33,7.33,0,0,1-1.54,2.25,6.64,6.64,0,0,1-2.25,1.56,7,7,0,0,1-2.79.56h-.52Zm1.51,12.51a4.27,4.27,0,0,0,1.84-.64A5.78,5.78,0,0,0,186.6,76a6,6,0,0,0,1-1.68,5.69,5.69,0,0,0,.34-1.93,5.16,5.16,0,0,0-.37-2,5.6,5.6,0,0,0-1-1.66,5.42,5.42,0,0,0-3.32-1.9Z"/><path class="cls-1" d="M194.63,76.79A3.57,3.57,0,0,0,197,78a2.27,2.27,0,0,0,.76-.15,1.43,1.43,0,0,0,.37-.19l.35-.23a1.82,1.82,0,0,0,.49-.67,1.74,1.74,0,0,0,.2-.84,6.37,6.37,0,0,0-1.13-2.45L197,72c-1.21-1.65-1.81-2.93-1.81-3.83a2.77,2.77,0,0,1,.79-2,2.68,2.68,0,0,1,2-.77,2.63,2.63,0,0,1,2.15,1.17l-1,.91a2,2,0,0,0-1.31-.62c-.8,0-1.21.37-1.21,1.12s.6,1.73,1.81,3.38q2.15,3.47,2.15,4.77a3.39,3.39,0,0,1-.28,1.34,2.79,2.79,0,0,1-.74,1.06,3.23,3.23,0,0,1-1.11.74,3.69,3.69,0,0,1-1.41.27,4.45,4.45,0,0,1-2.42-.79Z"/><path class="cls-1" d="M203.5,65.35V79.41H202V65.35Z"/><path class="cls-1" d="M207.48,69.21a5.6,5.6,0,0,0-1,3.14,5,5,0,0,0,.37,1.9,5.12,5.12,0,0,0,1,1.7,5.78,5.78,0,0,0,1.49,1.31,3.84,3.84,0,0,0,1.85.67v-6h1.46l0,7.54a2.47,2.47,0,0,1-.54,0,7.07,7.07,0,0,1-4.93-2.07,6.83,6.83,0,0,1-1.55-2.28,6.43,6.43,0,0,1-.6-2.76,7,7,0,0,1,.57-2.8,6.82,6.82,0,0,1,1.55-2.25,7.13,7.13,0,0,1,2.25-1.53,6.79,6.79,0,0,1,2.73-.54,2.28,2.28,0,0,1,.52,0v1.46a1.93,1.93,0,0,0-.52,0,5.47,5.47,0,0,0-2.66.67A5.38,5.38,0,0,0,207.48,69.21Z"/><path class="cls-1" d="M215.39,65.35l3.81,10.21V65.35h1.51V79.41h-1.63l-2.87-7.66v7.66H214.7V65.35Z"/><path class="cls-1" d="M222.12,76.79A3.57,3.57,0,0,0,224.51,78a2.32,2.32,0,0,0,.77-.15,1.62,1.62,0,0,0,.37-.19l.35-.23a1.82,1.82,0,0,0,.49-.67,1.86,1.86,0,0,0,.2-.84,6.29,6.29,0,0,0-1.14-2.45l-1-1.43c-1.2-1.65-1.8-2.93-1.8-3.83a2.74,2.74,0,0,1,.79-2,2.68,2.68,0,0,1,2-.77,2.63,2.63,0,0,1,2.15,1.17l-1,.91a2,2,0,0,0-1.31-.62c-.81,0-1.21.37-1.21,1.12s.6,1.73,1.8,3.38c1.44,2.31,2.15,3.9,2.15,4.77a3.56,3.56,0,0,1-.27,1.34,2.79,2.79,0,0,1-.74,1.06,3.23,3.23,0,0,1-1.11.74,3.76,3.76,0,0,1-1.41.27,4.45,4.45,0,0,1-2.42-.79Z"/></svg>