<svg id="Layer_1" data-name="Layer 1" xmlns="http://www.w3.org/2000/svg" viewBox="0 0 348.93 93.93"><defs><style>.cls-1{fill:#010101;}.cls-2{fill:#fff;}</style></defs><title>wiu-logo</title><path class="cls-1" d="M90.78,12.87a13.53,13.53,0,0,1,5.43-4q.9-.12.66-.69A4.09,4.09,0,0,0,95.7,6.81a17.87,17.87,0,0,0-2.28-1.59,18.89,18.89,0,0,0-2.7-1.35,9.44,9.44,0,0,0-2.46-.66,1.53,1.53,0,0,0-1.53.48,34.62,34.62,0,0,0-5.16,7Q79,15.09,76.5,20.52T71.7,32q-2.31,6-4.32,11.91T63.72,55.11q-1.65,5.34-2.85,9.3T59,70.62q-.66,2.25-.72,1.95a22.43,22.43,0,0,1-.06-4.41q.18-2.61.63-5.67t1-6.39q.6-3.33,1.14-6.6T62,43.2a53.61,53.61,0,0,0,.45-5.49,4.52,4.52,0,0,0-1.71-2.46,15.18,15.18,0,0,0-3-1.89,9.79,9.79,0,0,0-2.88-.93q-1.32-.18-1.5.48v1.38q-.48,2-1.47,4.92t-2.34,6.24q-1.35,3.36-2.88,6.93t-3.09,7q-1.56,3.39-3,6.36T38,70.83q-1.14,2.16-1.89,3.3t-.87.78A6.61,6.61,0,0,1,35,72.18q.12-1.83.48-4.08t.9-4.71q.54-2.46,1.08-4.65t1-3.87q.45-1.68.63-2.4Q39.63,50,40.41,47T42,40.62q.78-3.33,1.44-6.72t1.11-6.54a54.56,54.56,0,0,0,.54-5.94,20.89,20.89,0,0,0-.33-4.83,4.4,4.4,0,0,0-1.62-2.34,15.12,15.12,0,0,0-2.82-1.83,10.61,10.61,0,0,0-2.82-1q-1.32-.24-1.68.24a53.46,53.46,0,0,0-11.73,5.61,54.08,54.08,0,0,0-9.24,7.44A50.13,50.13,0,0,0,8.1,33.09,41,41,0,0,0,4,41.46,24.23,24.23,0,0,0,2.49,49a10.23,10.23,0,0,0,1.32,5.67A5.5,5.5,0,0,0,5.1,56.1a26.86,26.86,0,0,0,2.22,1.74A28.07,28.07,0,0,0,9.9,59.46a19,19,0,0,0,2.37,1.14,3.33,3.33,0,0,0,1.59.3q.57-.09.21-.93a14.26,14.26,0,0,1-.81-5.37,31.19,31.19,0,0,1,1-7.08,49.2,49.2,0,0,1,2.7-7.89,43,43,0,0,1,4.44-7.83,41.94,41.94,0,0,1,6.18-6.9,29.73,29.73,0,0,1,7.83-5.07,125.48,125.48,0,0,1-2.16,14.94q-1.5,7.2-3.06,13.89T27.48,61.47a55.17,55.17,0,0,0-.93,11.64,5.11,5.11,0,0,0,1.32,3.21,13,13,0,0,0,2.85,2.49,12,12,0,0,0,3.15,1.47,3.52,3.52,0,0,0,2.34.09,4.21,4.21,0,0,0,1-.66q.57-.48,1.14-1t1-1.14l.78-.93A15.57,15.57,0,0,0,42,72.93q1.08-2.7,2.61-6.75t3.57-9.33q2-5.28,4.8-11.46-.18,2.82-.45,4.92T52,54.15q-.3,1.74-.63,3.36T50.7,61q-.33,1.86-.6,4.2t-.51,5.52a5.1,5.1,0,0,0,1.23,3.15,11,11,0,0,0,2.73,2.37,13.41,13.41,0,0,0,3.15,1.44,6.49,6.49,0,0,0,2.55.36,4.21,4.21,0,0,0,2.49-1.41,7.1,7.1,0,0,0,1.47-2.37q.24-.84,1.2-3.87t2.49-7.5q1.53-4.47,3.57-10t4.41-11.19q2.37-5.7,5-11.19a110.28,110.28,0,0,1,5.37-10A52.33,52.33,0,0,1,90.78,12.87Z"/><path class="cls-2" d="M92.55,14.64A13.23,13.23,0,0,1,97.49,11a2.65,2.65,0,0,0,1.84-2.41c.44-4.46-9-8.93-12.67-7.76-2.55.81-4.59,4.39-6,6.48A93.3,93.3,0,0,0,74,20,277.91,277.91,0,0,0,63.58,47.35c-1.49,4.51-2.88,9.06-4.27,13.6-.58,1.9-1.15,3.79-1.72,5.69-.28.93-.62,1.88-.85,2.83-.13.57-1,2-.22,1.33l4.27,1.77C60,63.46,63,54,64.23,45.06c.44-3.19,1.59-7.29-.41-10.14-1.8-2.56-6.23-5.22-9.47-5-2.27.18-3,1.28-3.48,3.33a88.66,88.66,0,0,1-3.72,11.51q-3.19,8-6.87,15.77C39.22,62.79,38.13,65,37,67.2c-.36.71-3.24,5.29-1.82,5.21l2.41,1.83c-1.38-6.52,2.4-15.4,4-21.74,1.91-7.58,3.89-15.15,5.09-22.89.81-5.21,2.62-13.06-1.81-17.13-5-4.62-9.42-3.65-15-1.14C16.91,17.11,5,28.53,1,42.39-.44,47.52-.86,53.88,3.33,57.87,6,60.36,12.31,65.4,16,62.39A2.53,2.53,0,0,0,16.61,60c-2.9-14.9,6.4-31.49,20-38l-3.76-2.16C31.78,31.62,28.7,43,26.29,54.54c-1.53,7.37-5.35,19,1.16,24.89C33.68,85,40,83,43.5,75.8,48.1,66.46,51,56.18,55.17,46.65l-4.66-1.26c-.4,5.5-1.59,10.79-2.43,16.23-.58,3.72-1.89,8.68-.2,12.23,3.26,6.85,14,9.46,17.49,1.66,1.7-3.76,2.6-8.06,3.94-12,1.88-5.47,3.87-10.92,6-16.3C79.78,36,84.57,23.9,92.55,14.64c2.09-2.43-1.43-6-3.54-3.54C77.7,24.24,71.59,42.19,65.86,58.31c-1.43,4-2.8,8-4.08,12.09-.65,2.07-.67,3.55-2.86,4.32-3,1-6.33-1.55-6.73-4.55-.54-4,1-8.91,1.74-12.82a102.48,102.48,0,0,0,1.58-12c.17-2.39-3.65-3.53-4.66-1.26-3.11,7-5.89,14.19-8.62,21.38C41,68.77,40,73.11,37.62,75.75c-2.18,2.43-3.78,2.48-6.37.32C29,74.19,29,72.65,29.05,69.91c.21-8.66,2.8-17.28,4.67-25.68a192.18,192.18,0,0,0,4.15-24.4c.19-2.06-2.22-2.89-3.76-2.16C18.37,25.16,8.48,44.3,11.79,61.29l.64-2.44c.66-.54-5.1-4-5.56-4.52-2.06-2.18-2.06-5.08-1.61-7.92.94-5.77,4.05-11.28,7.65-15.81a51.51,51.51,0,0,1,13.74-12c4.62-2.77,11.63-7.69,14.87-1.08,2.46,5,.22,12.12-.86,17.4-1,5-2.31,10-3.56,14.94-2,7.82-6,17.59-4.32,25.7a2.51,2.51,0,0,0,2.41,1.84c2.27-.12,3.2-2.22,4.2-4,2-3.61,3.83-7.4,5.58-11.15a199.13,199.13,0,0,0,9.8-23.78,38.73,38.73,0,0,0,1.1-4.2v-1c-.9,1.87-.18,2.9,2.14,3.1,3.46,2.81,1.23,8.81.63,12.46-1.26,7.72-3.54,15.86-2.85,23.74a2.54,2.54,0,0,0,4.27,1.77c1.27-1,1.56-3.73,2-5.13Q63.3,65,64.59,60.77c2.19-7.14,4.45-14.26,7-21.28a192.78,192.78,0,0,1,9.24-22.18A70.75,70.75,0,0,1,85.45,9.2c.75-1.09,1.77-3.26,3.32-3.36.35,0,5.6,2.33,5.56,2.78l1.83-2.41A18.59,18.59,0,0,0,89,11.1C86.79,13.42,90.32,17,92.55,14.64Z"/><path class="cls-1" d="M169.44,47.64a1.29,1.29,0,0,0-.84-.24,1.16,1.16,0,0,0-.81.45q-.42,1-.87,2.31a26.23,26.23,0,0,1-1.11,2.67q-.66,1.44-1.23,2.79t-1.11,2.79a13.67,13.67,0,0,1-3.84,6.06,26.67,26.67,0,0,0,1.53-4,24.2,24.2,0,0,0,.87-4.17,21.48,21.48,0,0,0,.09-4.08,16.85,16.85,0,0,0-.69-3.75,7.83,7.83,0,0,0-1.05-2.13,11,11,0,0,0-1.65-1.86,19,19,0,0,0-2-1.59,18,18,0,0,0-2.13-1.26,7,7,0,0,0-1.83-.72,4.85,4.85,0,0,0-1.83-.12,3.13,3.13,0,0,0-1.47.75A12.74,12.74,0,0,0,148,43.05a16.27,16.27,0,0,0-1.32,1.77q-.6.93-1,1.53a19.38,19.38,0,0,0-1.8-2,22.27,22.27,0,0,0-2.13-1.89,9.47,9.47,0,0,0-1.86-1.17q-.81-.36-.93.06a4.59,4.59,0,0,0-.3,1.14l-.63,3c-.16.73-.33,1.53-.51,2.37a.34.34,0,0,0-.06.06q-1.14,2.46-2.37,5.19t-2.49,5.34q-1.26,2.61-2.49,4.86a26.43,26.43,0,0,1-2.37,3.69q-.72,0-.54-1.23a22.09,22.09,0,0,1,.6-2.73h.06q.42-1.68,1.08-3.72t1.29-3.9q.63-1.86,1.05-3.24a8.28,8.28,0,0,0,.42-1.8,7,7,0,0,0-1.44-2.19,22.62,22.62,0,0,0-2.43-2.37,16.52,16.52,0,0,0-2.34-1.68q-1-.6-1.23-.06a15.27,15.27,0,0,0-.66,1.74,5.28,5.28,0,0,0-.75-.93q-.45-.45-1-1A28.16,28.16,0,0,0,118.56,42a7.11,7.11,0,0,0-3.15-.78,8.24,8.24,0,0,0-4.47,1,13.22,13.22,0,0,0-3.72,3.09,20.31,20.31,0,0,0-2.85,4.5,24.72,24.72,0,0,0-1.25,3.25c-.46,1-.93,2-1.42,3q-1.11,2.28-2.25,4.47t-2.13,3.9a26.3,26.3,0,0,1-1.77,2.73q-.78,1-1.14,1-.84.3-1-.9a8.32,8.32,0,0,1,.66-3.6q.48-1.44,1.14-3.24t1.41-3.69Q97.35,54.75,98,53t1.2-3.27q.51-1.47.78-2.43t.09-1.14a8,8,0,0,0-.81-2A5.91,5.91,0,0,0,97.53,42a2,2,0,0,0-1.08-.15q-.84,0-2,.12t-2.31.09a9.72,9.72,0,0,1-2-.18,1.71,1.71,0,0,1-.81-.45,5.59,5.59,0,0,1-.51-.57,3,3,0,0,1,0-1.77,29.56,29.56,0,0,1,.81-3.06q.54-1.71,1.23-3.42a19.28,19.28,0,0,1,1.35-2.79,2,2,0,0,0,.09-2A7.07,7.07,0,0,0,91.08,26a9.64,9.64,0,0,0-1.68-1.5,3.92,3.92,0,0,0-1.23-.66,2.12,2.12,0,0,0-.57-.18,1.15,1.15,0,0,0-.78.21,5,5,0,0,0-1.08,1A17.56,17.56,0,0,0,84.21,27,9.74,9.74,0,0,0,83,30.21a14,14,0,0,0-.18,3.9,19,19,0,0,0,.84,4.11A14.34,14.34,0,0,0,85.53,42q-.66,1.74-1.29,3.63l-1,3.15a1.79,1.79,0,0,0,.18,1,1.81,1.81,0,0,0,.6.72,1.27,1.27,0,0,0,.81.21,1.16,1.16,0,0,0,.81-.45q.42-1,1.14-2.58t1.5-2.94a5,5,0,0,0,1.08.69,5,5,0,0,1,.75.39.73.73,0,0,1,.33.42,1.1,1.1,0,0,1-.12.66,66,66,0,0,0-2.58,7.62,46.58,46.58,0,0,0-1.23,6.12,25.43,25.43,0,0,0-.21,4.59,13.15,13.15,0,0,0,.48,3A3.27,3.27,0,0,0,88,70a14.17,14.17,0,0,0,2.19,1.41,19.13,19.13,0,0,0,2.46,1.08,11.71,11.71,0,0,0,2,.57,3.28,3.28,0,0,0,2.64-1,15.6,15.6,0,0,0,2.64-3.21,36.3,36.3,0,0,0,2.44-4.52c.09.4.2.78.32,1.16a8.91,8.91,0,0,0,2.7,4,20.19,20.19,0,0,0,4.08,2.82,7,7,0,0,0,1.83.72,4.85,4.85,0,0,0,1.83.12,2.73,2.73,0,0,0,1.53-.78,13.74,13.74,0,0,0,1.56-1.65q.75-.93,1.38-1.83t1.05-1.44a16.36,16.36,0,0,0,.9-1.38q.42-.72.84-1.5.06.48.09.9a5.28,5.28,0,0,0,.15.9,13.2,13.2,0,0,0,.51,2.73,8.46,8.46,0,0,0,1.08,2.31A5.74,5.74,0,0,0,123.9,73a4.61,4.61,0,0,0,2.31.69,3.72,3.72,0,0,0,2.64-1.23,16.71,16.71,0,0,0,2.7-3.42,48.09,48.09,0,0,0,2.58-4.8c.16-.34.3-.67.46-1-.05.21-.09.42-.13.65l-.9,4.47q-.51,2.52-1.05,5.28t-1,5.16q-.42,2.4-.63,4.14a8.17,8.17,0,0,0-.09,2.22,7,7,0,0,0,1.38,2.16,22.64,22.64,0,0,0,2.28,2.31,11.32,11.32,0,0,0,2.19,1.56q1,.51,1.17,0a4,4,0,0,0,.3-1q.18-.84.39-2.07t.51-2.82q.3-1.59.66-3.33h-.06l2.28-12.18a1.76,1.76,0,0,0,.48.42A23,23,0,0,0,145.53,72a8.71,8.71,0,0,0,3.12.87,8.29,8.29,0,0,0,4.38-1A12.76,12.76,0,0,0,156.69,69a10.52,10.52,0,0,0,4-1.56,7.71,7.71,0,0,0,2.82-2.67q1-1.65,2.16-3.75a25.61,25.61,0,0,0,1.44-3q.6-1.5,1.2-3.06t1.08-3l.84-2.52a1.8,1.8,0,0,0-.18-1A2,2,0,0,0,169.44,47.64Zm-48.51,10q-1.14,1.74-2.52,3.63t-2.7,3.45q-1.32,1.56-2.37,2.61a3.61,3.61,0,0,1-1.53,1.11.91.91,0,0,1-1-.57,4.92,4.92,0,0,1-.42-1.68,12.26,12.26,0,0,1,0-2.1q.09-1.11.21-1.95a14.64,14.64,0,0,1,.66-3,30.3,30.3,0,0,1,1.35-3.48,37.65,37.65,0,0,1,1.8-3.45,24,24,0,0,1,2-3,11.61,11.61,0,0,1,2.07-2,2.5,2.5,0,0,1,1.8-.63,1.15,1.15,0,0,1,.9,1.23,7.23,7.23,0,0,1-.3,2.34,15.81,15.81,0,0,1-1,2.55,10.49,10.49,0,0,1-1,1.8q-.54.6.39.69a5.52,5.52,0,0,0,2-.21Zm24.75,9.12a2.63,2.63,0,0,1-1.89.66q-.84-.12-.9-1.17a7.23,7.23,0,0,1,.3-2.34,15.81,15.81,0,0,1,1-2.55,10.49,10.49,0,0,1,1-1.8q.3-.42-.09-.6a2,2,0,0,0-1.11-.06q.12-.6.24-1.17t.24-1.23l.54-2.4a36.81,36.81,0,0,0,.93,5.7,17.05,17.05,0,0,0,1.89,4.8A11.49,11.49,0,0,1,145.68,66.75Zm8-16.86q-.09,1.14-.21,2a17.28,17.28,0,0,1-1.14,4.44A34.5,34.5,0,0,1,150,61.23a21.89,21.89,0,0,1-1.74-6.57,16,16,0,0,1,.84-6.27,22.7,22.7,0,0,1,1.83-2,2.84,2.84,0,0,1,1.23-.84,1,1,0,0,1,1.11.6,4.63,4.63,0,0,1,.42,1.65A12.61,12.61,0,0,1,153.72,49.89Z"/><path class="cls-2" d="M170.1,45.23c-3.12-.89-4.34,1-5.37,3.65-1.74,4.41-3.47,10.52-6.87,13.82l3.93,3c3.33-7.4,5-17.4-1.79-23.4-2.25-2-5.84-4.48-9.07-4-3.58.52-5.59,4-7.44,6.76l3.93-.51c-2.54-3.1-9.2-9.64-11.2-2.8-.37,1.26-.33,3.51-.56,4.3-.59,2.06-2.16,4.38-3.07,6.38-2.06,4.51-4.09,9.19-7,13.21l3.42-.9-.49-.31,1.23,2.16a8.7,8.7,0,0,1,.47-3l-2.41,1.84h.06a2.55,2.55,0,0,0,2.41-1.84c1.49-5.64,6.18-12.19,1.76-17.28-3.39-3.9-8.55-7.78-10.84-1.27l4.18-1.1c-5.09-6.3-13.71-6.9-19.32-1-2.85,3-4.11,6.63-5.76,10.32-.61,1.38-5.31,12.38-6.53,12.24l2.41,1.84c-1-2.37,1.78-7.24,2.62-9.4A80,80,0,0,0,102.1,49c.86-3.34-.18-8-3.91-9.38-1.58-.58-4.87.8-6,0-2.09-1.49,2.3-8,2.65-9.55.77-3.48-2.3-7.25-5.49-8.47-3.68-1.4-6.34,2-7.78,5.11-2.23,4.79-1,9.4.47,14.14.89,3-.94,4.24-1.23,7.32a4.71,4.71,0,0,0,1.42,4.18c4.47,3.69,6.72-3.54,8.19-6.27L87,47a14.88,14.88,0,0,1,1.65,1.11L88,45.62c-1.31,7.22-8.62,19.61-1.79,26.14C88.4,73.86,92.88,76,96,75.39c4.32-.81,6.87-6.3,8.56-9.8L100,65c1.37,5,6.74,10.54,12.29,10.64,5,.09,8.22-6.15,10.3-9.85l-4.66-1.26c.46,4.58,1.62,10.49,7,11.49,6.22,1.15,9.79-7,11.81-11.51l-4.57-1.92C131.1,68,129.92,73.44,129,78.91c-.66,4-1.35,6.91,1.43,10.19,1.59,1.87,5.34,6,8.29,4.5s2.86-8.38,3.39-11a2.53,2.53,0,0,0-2.41-3.16h-.06l2.41,3.16,2.28-12.18-4.18,1.11c3.27,2.86,7.82,4.7,12.14,3.39,2-.61,3.35-1.91,5-3,1.92-1.27,4.18-1.78,6-3.27,3.38-2.75,5.24-7.54,6.8-11.48,1.44-3.66,4.05-7.86,1.07-11.27-2.13-2.43-5.65,1.12-3.54,3.54.39.44-2.13,5.85-2.35,6.4a31.85,31.85,0,0,1-3.95,7.67c-1.67,2.11-4,2.42-6.2,3.53-1.48.74-2.46,2.56-4.2,3.07-2.52.75-5.4-.46-7.27-2.1-1.3-1.13-3.81-.88-4.18,1.1l-2.28,12.18a2.54,2.54,0,0,0,2.41,3.17h.06l-2.41-3.17c-.42,2.06-.31,6.58-1.56,8.22,1.34-1.74-.63-2.34-1.46-3.65-1-1.59-1-1.85-.72-3.86.82-6.06,2.25-12,3.44-18,.51-2.59-3.33-4.68-4.57-1.93-1,2.1-2.5,6.35-4.44,7.77-4,2.91-4.82-2.41-5.1-5.23-.23-2.31-3.35-3.6-4.66-1.26-1,1.81-2.7,5.4-4.54,6.52-3.55,2.15-8.06-3-8.91-6.12-.54-2-3.6-2.59-4.57-.6-1.8,3.73-4,9.13-8.8,6.17-4.33-2.68-2.53-9.1-1.52-13.17.71-2.83,3.06-6.6,3-9.45-.08-2.26-1.6-2.87-3.35-4a2.52,2.52,0,0,0-3.42.9,12.75,12.75,0,0,0-1.5,2.94l-.64,1.42,2.14.17c.49-.3,1.82-4.64,1.87-5.37.22-3.31-2.69-6.28-2.67-9.92,0-1.57.56-5.4,2.24-6.19,1.11-.53,2.18,1.75,1.91,3.24-.63,3.55-3.65,6.91-3.16,10.75A4.49,4.49,0,0,0,90,44.39c3.27.82,8.23-1.51,7.1,4-.74,3.63-2.75,7.25-4,10.72-1.07,2.88-3,6.53-1.68,9.6a2.67,2.67,0,0,0,2.41,1.83c4.84.54,7.72-8.38,9.38-11.71,3.3-6.62,9.28-22.94,18.69-11.26,1.28,1.58,3.62.48,4.18-1.11-.62,1.76,1.9,2.2,2.48,3.48.87.22,1,.74.38,1.55-.24.8-.5,1.59-.76,2.37-.93,2.83-1.9,5.62-2.66,8.49l2.41-1.83h-.06a2.54,2.54,0,0,0-2.41,1.83c-.64,2.52-1.46,5.21,1.09,6.79a2.57,2.57,0,0,0,3.42-.9c3.94-5.38,6.55-11.92,9.17-18a18.12,18.12,0,0,0,1.86-6.4c.1-.51.21-1,.33-1.51q-3.07,1.22-1,2.21c.59,1.19,2.73,2.53,3.64,3.65,1.09,1.33,3.11.69,3.93-.51,1-1.46,2.24-4.17,4.28-4.25,1.74-.07,4.77,2.61,5.76,3.83,3.49,4.28,1.64,11.52-.38,16-1.11,2.47,1.76,5.13,3.93,3,2.35-2.29,3.55-4.87,4.75-7.88.76-1.9,1.64-3.74,2.42-5.63.28-.62.53-1.26.76-1.91.81-1.33.63-1.59-.56-.77C171.87,50.93,173.2,46.11,170.1,45.23Z"/><path class="cls-2" d="M118.77,56.37c-1.25,1.87-2.53,3.73-3.94,5.49-.62.77-2.2,2-2.53,2.93-1.15.7-1,1.24.6,1.64a9.25,9.25,0,0,1-.06-2.35,17.78,17.78,0,0,1,.62-3.77,27.72,27.72,0,0,1,4.06-8.45,12.29,12.29,0,0,1,1.69-2c-1-.82-1.51-.3-1.46,1.58-.46,1-1.07,1.84-1.44,2.87a2.54,2.54,0,0,0,1.74,3.07,6.73,6.73,0,0,0,3.9,0l-3.16-2.41-.36,2.7c-.43,3.18,4.58,3.15,5,0l.36-2.7c.23-1.74-1.78-2.68-3.17-2.41h-1.24l1.75,3.08c1.11-3.06,5.48-11.54-1.28-11.51-5.52,0-9.45,9.55-10.86,13.78-1.07,3.23-2.95,11.31,1.53,12.9C115.41,72.49,121,62,123.09,58.89,124.88,56.21,120.55,53.7,118.77,56.37Z"/><path class="cls-2" d="M144.42,64.59l-.44.22L145.47,66c-1-1.29,1.75-4.75,2.24-6.11a2.5,2.5,0,0,0-.65-2.43,3.56,3.56,0,0,0-3.09-1l2.41,3.16q.48-2.4,1-4.8l-4.91-.66c.39,4.08,1.12,8.15,3.16,11.76l.39-3A15,15,0,0,1,143.91,65c-2.5,2,1.06,5.55,3.54,3.54a15.53,15.53,0,0,0,2.13-2.16,2.62,2.62,0,0,0,.39-3,23,23,0,0,1-2.48-9.24c-.25-2.62-4.25-3.62-4.91-.67q-.54,2.4-1,4.8c-.3,1.48.68,3.29,2.41,3.17l-.44-.43-.65-2.44c-1,2.78-3.27,5.46-2.34,8.68.88,3.06,4,3.17,6.4,1.71C149.67,67.21,147.16,62.89,144.42,64.59Z"/><path class="cls-2" d="M151.22,49.89A25.06,25.06,0,0,1,147.87,60l4.57.59c-1.38-3.48-3.63-10.74,1-12.89l-1.93.25c-.4-.61-.5-.53-.31.23a7.24,7.24,0,0,1,0,1.74c-.13,3.22,4.87,3.21,5,0,.09-2.13.05-5.19-2.1-6.42s-4.33.41-5.8,2c-4,4.4-2.7,11.37-.7,16.4.74,1.88,3.44,2.64,4.57.6a31,31,0,0,0,4-12.6C156.51,46.69,151.51,46.71,151.22,49.89Z"/><path class="cls-1" d="M244.92,7.11a19.26,19.26,0,0,0-1.44-2.79q-.81-1.29-1.41-1.47a68.9,68.9,0,0,0-13.92.81,75.32,75.32,0,0,0-13.44,3.45,83.12,83.12,0,0,0-12.6,5.73,91.18,91.18,0,0,0-21.39,16.53,79.5,79.5,0,0,0-8.13,10q-.12.36.57,1a12.39,12.39,0,0,0,1.8,1.32q1.11.69,2.46,1.38A26.42,26.42,0,0,0,180,44.19a21.14,21.14,0,0,0,2.19.72q.93.24,1.17,0a95.83,95.83,0,0,1,14.4-16.38,69.55,69.55,0,0,1,17.94-11.76q-2.82,6.24-5.43,11.7t-4.83,11a117.51,117.51,0,0,0-3.93,11.4,101.46,101.46,0,0,0-2.79,13.11,1.79,1.79,0,0,0,.57,1.11,10.87,10.87,0,0,0,1.53,1.35,74,74,0,0,0-9.51,3.75,63.46,63.46,0,0,0-8.07,4.53q-.24.3.18.9a9.25,9.25,0,0,0,1.17,1.32q.75.72,1.71,1.5a19.13,19.13,0,0,0,1.92,1.38,18,18,0,0,0,1.71,1,1.64,1.64,0,0,0,1.11.24,38.12,38.12,0,0,1,6.15-3.21A53.34,53.34,0,0,1,204,75.48a66.53,66.53,0,0,1,7.2-1.47q3.66-.54,7.32-.72.36-.12.27-.87a6.79,6.79,0,0,0-.54-1.8q-.45-1.05-1.11-2.25a23.41,23.41,0,0,0-1.38-2.22,11.29,11.29,0,0,0-1.38-1.65,1.82,1.82,0,0,0-1.08-.63q-1,.06-1.89.18l-1.95.24a116,116,0,0,1,2.25-11.7q1.35-5.4,3.12-10.59t4-10.5q2.22-5.31,4.92-11.37a1.4,1.4,0,0,0-.39-1,12.29,12.29,0,0,0-1.14-1.29,15.15,15.15,0,0,0-1.56-1.35q-.87-.66-1.65-1.14A66.36,66.36,0,0,1,231.63,12a64.65,64.65,0,0,1,13.92-.75q.54-.12.27-1.38A15.71,15.71,0,0,0,244.92,7.11Z"/><path class="cls-2" d="M247.08,5.85c-1.14-2.45-2.25-4.86-5-5.5-3.67-.86-8.55.08-12.2.55a80,80,0,0,0-22.05,6.3,91.41,91.41,0,0,0-37.39,30.87,2.45,2.45,0,0,0,0,2.52c1.87,3.25,6.1,5,9.52,6.22,5.27,1.8,6.23-1.77,9.28-5.57A78,78,0,0,1,217,18.93l-3.42-3.42c-4.33,9.55-9.18,18.91-12.6,28.84a103,103,0,0,0-3.89,14.55c-.77,4.05-1.44,6.48,2,9.26l1.1-4.18A77.77,77.77,0,0,0,182,72.51a2.59,2.59,0,0,0-1.14,2.82c.7,3.5,6.84,8.58,10.54,8.09,1.4-.18,2.69-1.39,3.91-2a44,44,0,0,1,7.63-3,68.83,68.83,0,0,1,15.61-2.59A2.58,2.58,0,0,0,221,74c1-3.1-1.26-6.6-3-9.06-2.44-3.42-4.42-3.59-8.46-3.1L211.9,65a136.71,136.71,0,0,1,9-31.9c1.14-2.77,2.33-5.52,3.53-8.26.66-1.49,1.93-3.31,1.8-5-.22-2.89-3.76-5.15-5.93-6.57l-.6,4.57a65.06,65.06,0,0,1,23.14-4.13c5.41.06,6.4-2.16,4.5-7.23-1.12-3-6-1.69-4.82,1.33.35,1,.27,1.79,1.22.91-.37.34-3,0-3.57,0a64.13,64.13,0,0,0-7.2.6A70.72,70.72,0,0,0,218.36,13a2.53,2.53,0,0,0-.59,4.57c1.13.74,2.8,1.57,3.08,3s-2.3,5.26-2.85,6.56c-1.52,3.55-3,7.1-4.32,10.72a129.41,129.41,0,0,0-6.6,25.76c-.21,1.41.62,3.38,2.41,3.17,2.17-.26,3.37-.08,4.84,1.69.64.77,2.1,3.18,1.81,4.14l2.41-1.83A70.56,70.56,0,0,0,198.2,74.7c-1.93.72-5.88,3.65-7.78,3.45-1.32-.14-4.51-3-4.74-4.15l-1.15,2.83a72.53,72.53,0,0,1,17-8c1.62-.53,2.67-2.92,1.1-4.18-2.47-2-.16-7.37.52-10.1A108.22,108.22,0,0,1,207,42.46c3.16-8.35,7.25-16.31,10.94-24.43a2.52,2.52,0,0,0-3.42-3.42c-13.72,6.43-24.54,16.77-33.24,29l2.16-1.24c-2.49,0-7.37-2.12-8.64-4.34v2.52a86.56,86.56,0,0,1,30.91-26.82,76.59,76.59,0,0,1,18.88-6.88A66.88,66.88,0,0,1,235.08,5.4c1.17-.07,4.12-.52,5.23-.1,1.52.56,1.75,1.57,2.45,3.07C244.12,11.28,248.43,8.75,247.08,5.85Z"/><path class="cls-1" d="M240.84,47.64a1.29,1.29,0,0,0-.84-.24,1.16,1.16,0,0,0-.81.45q-.72,1.62-1.65,3.75T235.65,56q-1,2.25-2,4.35T231.9,64a15.3,15.3,0,0,1-1.47,2.43q-.66.84-1,.48a1.74,1.74,0,0,1-.3-1.2,11.15,11.15,0,0,1,.3-2.28q1.2-7.08,2.34-13t2.1-10.32h.66a2.11,2.11,0,0,0,1-.54,2.46,2.46,0,0,0,.63-.87,1.32,1.32,0,0,0,.06-.87.94.94,0,0,0-.72-.6,3.68,3.68,0,0,1-.51,0l-.51-.09,1.08-4.92q.42-1.92.54-2.76a7.12,7.12,0,0,0-1.41-2.19,20.65,20.65,0,0,0-2.4-2.37A15.56,15.56,0,0,0,230,23.25q-1.08-.6-1.26-.06a5.36,5.36,0,0,0-.33,1.23l-.69,3.15q-.42,1.92-.93,4.29t-.93,4.59q-.54-.06-1.08-.09a9.81,9.81,0,0,1-1.2-.15,1.57,1.57,0,0,0-1.2.63,4.4,4.4,0,0,0-.81,1.38,2.87,2.87,0,0,0-.18,1.38.75.75,0,0,0,.75.69h3q-.18.84-.27,1.56a10.38,10.38,0,0,1-.21,1.2q-.36,2.1-1.05,5.37t-1.23,6.87q-.54,3.6-.72,7.05a18.36,18.36,0,0,0,.54,6,4.13,4.13,0,0,0,.93,1.68,8.57,8.57,0,0,0,1.56,1.38,9.54,9.54,0,0,0,1.83,1,7.87,7.87,0,0,0,1.74.51,3.36,3.36,0,0,0,2.67-1,15.29,15.29,0,0,0,2.67-3.18,35.24,35.24,0,0,0,2.52-4.62q1.2-2.61,2.25-5.28t1.89-5.16q.84-2.49,1.38-4.23a2,2,0,0,0-.15-1A1.76,1.76,0,0,0,240.84,47.64Z"/><path class="cls-2" d="M241.5,45.23c-4.09-1.17-5.1,2.76-6.43,5.82-1.85,4.25-3.53,10.9-7,14.17l2.43-.64-.39-.06,1.75,1.74c-.9-3.59,1.23-9.25,1.91-12.85q1.19-6.31,2.53-12.58l-2.41,1.84c5.06,0,6.78-6.94,1.26-7.91l1.75,3.07c.62-2.84,2.3-6.76,1.37-9.6s-4.84-6.4-7.68-7.39a3.17,3.17,0,0,0-4.39,1.84c-1.77,3.67-2.05,9.11-2.82,13.1L225.81,34c-3.39-.28-8,1.45-6.93,6,.72,3.1,3.71,2.86,6.21,2.86l-2.41-3.17c-1.31,7.52-3.34,15.05-3.57,22.72-.17,5.68,1.24,10.7,7.15,12.59,6.47,2.07,10.2-5.71,12.36-10.46a118.4,118.4,0,0,0,4.52-11.74c.91-2.74,1.4-4.53-.54-6.86S237,47,239.07,49.41c.21.25-1.69,4.78-1.86,5.24a86.09,86.09,0,0,1-3.3,8.17c-1.49,3.12-6.17,11.51-9.35,4.82-1.91-4,0-11.14.75-15.2.69-3.84,1.52-7.65,2.19-11.49a2.54,2.54,0,0,0-2.41-3.16,7.94,7.94,0,0,0-2,0c-2,.71,1.64,1.07,2.67,1.16a2.51,2.51,0,0,0,2.41-1.84c.44-2.28.92-4.56,1.41-6.83.22-1,.57-5.65,1.36-6.12-1.61,1,.34,3,.8,3.67s1.55,1.37,1.73,2.1c.36,1.5-1.08,5-1.42,6.57a2.53,2.53,0,0,0,1.74,3.08c2,.35,1.3-1.91.07-1.91a2.52,2.52,0,0,0-2.41,1.83q-1.68,7.83-3.11,15.7c-.71,3.91-2.32,8.46-1.33,12.39a2.43,2.43,0,0,0,1.74,1.75c3.49.54,4.81-3.14,6.12-5.79,1.14-2.32,2.18-4.68,3.2-7,.48-1.11,3.16-6.13,2-6.45C243.27,50.93,244.6,46.11,241.5,45.23Z"/><path class="cls-1" d="M346.41,48.36a2,2,0,0,0-.63-.72,1.29,1.29,0,0,0-.84-.24,1.16,1.16,0,0,0-.81.45q-.42,1-.87,2.31a26.23,26.23,0,0,1-1.11,2.67q-.66,1.44-1.23,2.79t-1.11,2.79A13.67,13.67,0,0,1,336,64.47a26.67,26.67,0,0,0,1.53-4,24.2,24.2,0,0,0,.87-4.17,21.48,21.48,0,0,0,.09-4.08,16.85,16.85,0,0,0-.69-3.75,7.83,7.83,0,0,0-1-2.13,11,11,0,0,0-1.65-1.86,19,19,0,0,0-2-1.59,18,18,0,0,0-2.13-1.26A7,7,0,0,0,329.1,41a4.85,4.85,0,0,0-1.83-.12,3.13,3.13,0,0,0-1.47.75,12.74,12.74,0,0,0-1.47,1.47A16.27,16.27,0,0,0,323,44.82q-.6.93-1,1.53a19.38,19.38,0,0,0-1.8-2,22.27,22.27,0,0,0-2.13-1.89,9.47,9.47,0,0,0-1.86-1.17q-.81-.36-.93.06a4.59,4.59,0,0,0-.3,1.14l-.63,3-.87,4.11q-.48,2.28-.9,4.47t-.78,4.11q-.36,1.92-.48,3-.12.84-.51,2.79l-.9,4.47q-.51,2.52-1,5.28t-1,5.16c-.27,1.49-.46,2.79-.6,3.9-.13-.24-.27-.49-.45-.78a7.6,7.6,0,0,1-.93-2.46,75.36,75.36,0,0,1-1.5-12.72,87.63,87.63,0,0,1,.42-11.82,90,90,0,0,1,1.77-10.71q1.17-5.07,2.52-9.45t2.67-8q1.32-3.66,2.28-6.48A2.1,2.1,0,0,0,314,18.9a12.74,12.74,0,0,0-.93-2.19q-.63-1.2-1.41-2.46A18.72,18.72,0,0,0,310,12a6.92,6.92,0,0,0-1.47-1.38q-.66-.42-1,.06-1.62,4-3.81,9.69T299.43,33q-1.68,4-3.6,8.31T292,49.77q-1.92,4.14-3.75,7.83T285,64q-1.41,2.73-2.31,4.2t-1,1.11a6.4,6.4,0,0,1-.33-2.37,17.05,17.05,0,0,1,.36-3q.33-1.62.81-3.36t1-3.3q.48-1.56.9-2.82t.6-2q.6-2.46,1.38-5.49t1.56-6.36q.78-3.33,1.44-6.72t1.11-6.54a54.56,54.56,0,0,0,.54-5.94,20.89,20.89,0,0,0-.33-4.83,4.4,4.4,0,0,0-1.62-2.34,15.12,15.12,0,0,0-2.82-1.83,10.61,10.61,0,0,0-2.82-1q-1.32-.24-1.68.24A53.46,53.46,0,0,0,270,17.28a54.08,54.08,0,0,0-9.24,7.44A50.13,50.13,0,0,0,254,33.09a41,41,0,0,0-4.14,8.37,24.23,24.23,0,0,0-1.47,7.5,10.23,10.23,0,0,0,1.32,5.67A5.5,5.5,0,0,0,251,56.1a26.86,26.86,0,0,0,2.22,1.74,28.07,28.07,0,0,0,2.58,1.62,19,19,0,0,0,2.37,1.14,3.33,3.33,0,0,0,1.59.3q.57-.09.21-.93a14.26,14.26,0,0,1-.81-5.37,31.19,31.19,0,0,1,1-7.08,49.2,49.2,0,0,1,2.7-7.89,43,43,0,0,1,4.44-7.83,41.94,41.94,0,0,1,6.18-6.9,29.73,29.73,0,0,1,7.83-5.07,95.73,95.73,0,0,1-2,13.59q-1.44,6.27-2.91,12t-2.52,11.16A48.37,48.37,0,0,0,273,67.47a5.19,5.19,0,0,0,1.29,3.21,12.37,12.37,0,0,0,2.82,2.49,11.2,11.2,0,0,0,3.18,1.44,3.69,3.69,0,0,0,2.37.06,5.85,5.85,0,0,0,.93-.63A13.48,13.48,0,0,0,284.73,73q.6-.6,1.08-1.14l.78-.9a12.79,12.79,0,0,0,1.32-2q.6-1.14,1.41-3t2-4.86q1.2-3,3.24-7.47a101.62,101.62,0,0,0-1.05,11,47.63,47.63,0,0,0,.63,10.11,4.7,4.7,0,0,0,.81,1.77,13.28,13.28,0,0,0,2.13,2.46,23.73,23.73,0,0,0,3.33,2.55,19.65,19.65,0,0,0,4.47,2.1,13.11,13.11,0,0,0,2.26.61,3.84,3.84,0,0,0,0,1.07,7,7,0,0,0,1.38,2.16,22.64,22.64,0,0,0,2.28,2.31A11.32,11.32,0,0,0,313,91.2q1,.51,1.17,0a4,4,0,0,0,.3-1q.18-.84.39-2.07t.51-2.82q.3-1.59.66-3.33H316l2.28-12.18a1.76,1.76,0,0,0,.48.42A23,23,0,0,0,321.87,72a8.71,8.71,0,0,0,3.12.87,8.29,8.29,0,0,0,4.38-1A12.76,12.76,0,0,0,333,69a10.52,10.52,0,0,0,4-1.56,7.71,7.71,0,0,0,2.82-2.67q1-1.65,2.16-3.75a25.61,25.61,0,0,0,1.44-3q.6-1.5,1.2-3.06t1.08-3l.84-2.52A1.8,1.8,0,0,0,346.41,48.36ZM322,66.75a2.63,2.63,0,0,1-1.89.66q-.84-.12-.9-1.17a7.23,7.23,0,0,1,.3-2.34,15.81,15.81,0,0,1,1-2.55,10.49,10.49,0,0,1,1-1.8q.3-.42-.09-.6a2,2,0,0,0-1.11-.06q.12-.6.24-1.17t.24-1.23l.54-2.4a36.81,36.81,0,0,0,.93,5.7,17.05,17.05,0,0,0,1.89,4.8A11.49,11.49,0,0,1,322,66.75Zm8-16.86q-.09,1.14-.21,2a17.28,17.28,0,0,1-1.14,4.44,34.5,34.5,0,0,1-2.34,4.92,21.89,21.89,0,0,1-1.74-6.57,16,16,0,0,1,.84-6.27,22.7,22.7,0,0,1,1.83-2,2.84,2.84,0,0,1,1.23-.84,1,1,0,0,1,1.11.6,4.63,4.63,0,0,1,.42,1.65A12.61,12.61,0,0,1,330.06,49.89Z"/><path class="cls-2" d="M348.17,46.59c-2.07-2.37-4.87-2-6.45.59-3,4.89-3.27,11.38-7.52,15.52l3.92,3c3.34-7.4,5-17.4-1.78-23.4-2.25-2-5.85-4.48-9.07-4-3.58.52-5.59,4-7.44,6.76l3.92-.51c-1.67-2-5.59-6.83-8.86-5.91s-3.17,7-3.68,9.46c-2.35,11.19-4.79,22.59-6.33,33.91l4.57-.59c-3.61-6.24-2.86-16.26-2.4-23.25a101.94,101.94,0,0,1,4.75-23.63c1.11-3.58,2.39-7.09,3.63-10.63.8-2.28,1.49-3.86.74-6.23-1.14-3.54-4.32-9.76-8.64-9.5A2.63,2.63,0,0,0,305.12,10c-4.16,10.22-7.37,20.77-11.84,30.84-2.3,5.2-4.68,10.36-7.2,15.46q-1.59,3.22-3.24,6.42c-.42.79-2.53,4.37-1.84,4.16l3.08,1.74c-.95-3.87,1.09-8.51,2.26-12.21.92-2.91,1.67-5.85,2.42-8.81a165.78,165.78,0,0,0,4.4-21.83c.64-5.67,1.11-11.34-4.22-14.72-5.8-3.67-10.47-1.26-16.1,1.65-11.94,6.19-23.23,17.74-26.27,31.2-1.24,5.51-.84,11.06,3.75,14.8,2.72,2.21,8.11,6.5,11.58,3.65a2.48,2.48,0,0,0,.64-2.43c-2.91-14.89,6.41-31.5,20-38l-3.76-2.16c-.89,9.83-3.54,19.19-5.8,28.75-1.52,6.48-5.27,17.68-.72,23.61,3.93,5.12,10.16,6.76,14.74,2,4.92-5.12,6.85-13,9.7-19.38l-4.57-1.93c-1,7-2.71,16.22-.19,23.14,2,5.53,9.15,9.35,14.51,10.49l-1.83-2.41c.06,3.64,4.83,9.78,8.82,9.8,4.58,0,4.37-8.29,5-11.31a2.53,2.53,0,0,0-2.41-3.16H316l2.41,3.16,2.28-12.18-4.18,1.11c7.64,6.68,14.5,2.5,21.81-2,3.45-2.1,5.37-6,7-9.57s4.21-8.31,3.53-12.31c-.54-3.16-5.36-1.82-4.82,1.33.3,1.76-1.73,5.25-2.35,6.79a31.46,31.46,0,0,1-3.94,7.67c-1.67,2.11-4,2.42-6.2,3.53-1.48.74-2.46,2.56-4.2,3.07-2.52.75-5.4-.46-7.28-2.1-1.29-1.13-3.8-.88-4.17,1.1l-2.28,12.18A2.53,2.53,0,0,0,316,84.43h.06l-2.41-3.17a62.42,62.42,0,0,0-1.38,7.29c-.16,2.11.43-.43.33-.68-.54-1.44-2.91-1.94-2.94-3.77a2.55,2.55,0,0,0-1.84-2.41c-5.36-1.14-11-4.53-11.61-10.34A71.35,71.35,0,0,1,297,54.21c.35-2.5-3.29-4.77-4.57-1.92-2.21,4.9-3.9,10.21-6.45,14.94-1.63,3-4.06,6.23-7.62,3.78-4-2.76-3-7.68-2.41-11.93,2-13.26,6.67-25.83,7.88-39.25.18-2.06-2.22-2.89-3.77-2.16-15.73,7.49-25.64,26.63-22.32,43.62l.65-2.44c.73-.6-4.07-3.31-4.71-3.84-2.42-2-2.92-4.39-2.66-7.46.45-5.24,3.21-10.37,6.14-14.63a49.41,49.41,0,0,1,12.64-12.5c3.51-2.42,10-7,14.2-6.22,13.57,2.66-7,46.63-4.72,55.79a2.52,2.52,0,0,0,3.07,1.75c3.05-.94,4.71-6.22,6-8.8,3-5.86,5.79-11.81,8.48-17.81,4.95-11.05,8.55-22.54,13.11-33.76l-2.41,1.84c.74,0,3.9,4.85,4,6.35.19,2.75-2.36,7-3.23,9.55a129.49,129.49,0,0,0-5,18.77,91.83,91.83,0,0,0-1.4,18.87c.18,5.58.37,12.29,3.22,17.22,1,1.69,4.27,1.63,4.57-.6,1.15-8.46,3.07-16.85,4.62-25.25.7-3.81,1.49-7.61,2.29-11.4.17-.81,1.58-6,.08-3.65-1,1.56-.21,1.21,1.19,2.5a24.56,24.56,0,0,1,2.34,2.55c1.09,1.33,3.11.69,3.93-.51,1-1.46,2.24-4.17,4.28-4.25,1.73-.07,4.77,2.61,5.76,3.83,3.49,4.28,1.64,11.52-.38,16-1.12,2.47,1.76,5.13,3.92,3,2.36-2.29,3.56-4.87,4.76-7.88.76-1.9,1.64-3.74,2.42-5.63.28-.62.53-1.26.76-1.91.88-1.45.53-1.68-1-.69C346.76,52.55,350.29,49,348.17,46.59Z"/><path class="cls-2" d="M320.75,64.59l-.43.22L321.81,66c-1-1.29,1.75-4.75,2.23-6.11a2.49,2.49,0,0,0-.64-2.43,3.56,3.56,0,0,0-3.09-1l2.41,3.16q.48-2.4,1-4.8l-4.91-.66c.39,4.08,1.12,8.15,3.16,11.76l.39-3A15,15,0,0,1,320.25,65c-2.5,2,1.05,5.55,3.53,3.54a14.49,14.49,0,0,0,2.13-2.16,2.61,2.61,0,0,0,.4-3,23,23,0,0,1-2.48-9.24c-.26-2.62-4.25-3.62-4.91-.67q-.54,2.4-1,4.8c-.3,1.48.68,3.29,2.41,3.17l-.44-.43-.65-2.44c-1,2.78-3.27,5.46-2.34,8.68.88,3.06,4,3.17,6.4,1.71C326,67.21,323.5,62.89,320.75,64.59Z"/><path class="cls-2" d="M327.56,49.89A25.06,25.06,0,0,1,324.21,60l4.57.59c-1.39-3.48-3.63-10.74,1-12.89l-1.93.25c-.4-.61-.51-.53-.31.23a7.24,7.24,0,0,1,0,1.74c-.14,3.22,4.86,3.21,5,0,.08-2.13.05-5.19-2.1-6.42s-4.34.41-5.8,2c-4,4.4-2.7,11.37-.7,16.4.74,1.88,3.43,2.64,4.56.6a30.86,30.86,0,0,0,4-12.6C332.85,46.69,327.85,46.71,327.56,49.89Z"/><path class="cls-1" d="M90.69,12.68a13.53,13.53,0,0,1,5.43-4q.9-.12.66-.69a4.09,4.09,0,0,0-1.17-1.35A17.87,17.87,0,0,0,93.33,5a18.89,18.89,0,0,0-2.7-1.35A9.44,9.44,0,0,0,88.17,3a1.53,1.53,0,0,0-1.53.48,34.62,34.62,0,0,0-5.16,7q-2.58,4.41-5.07,9.84t-4.8,11.46q-2.31,6-4.32,11.91T63.63,54.92q-1.65,5.34-2.85,9.3t-1.86,6.21q-.66,2.25-.72,1.95A22.43,22.43,0,0,1,58.14,68q.18-2.61.63-5.67t1-6.39q.6-3.33,1.14-6.6t.93-6.3a53.61,53.61,0,0,0,.45-5.49,4.52,4.52,0,0,0-1.71-2.46,15.18,15.18,0,0,0-3-1.89,9.79,9.79,0,0,0-2.88-.93q-1.32-.18-1.5.48V34.1q-.48,2-1.47,4.92t-2.34,6.24q-1.35,3.36-2.88,6.93t-3.09,7q-1.56,3.39-3,6.36t-2.61,5.13Q36.72,72.8,36,73.94t-.87.78A6.61,6.61,0,0,1,34.86,72q.12-1.83.48-4.08t.9-4.71q.54-2.46,1.08-4.65t1-3.87q.45-1.68.63-2.4.6-2.46,1.38-5.49t1.56-6.36q.78-3.33,1.44-6.72t1.11-6.54A54.56,54.56,0,0,0,45,21.23a20.89,20.89,0,0,0-.33-4.83A4.4,4.4,0,0,0,43,14.06a15.12,15.12,0,0,0-2.82-1.83,10.61,10.61,0,0,0-2.82-1q-1.32-.24-1.68.24A53.46,53.46,0,0,0,24,17.09a54.08,54.08,0,0,0-9.24,7.44A50.13,50.13,0,0,0,8,32.9a41,41,0,0,0-4.14,8.37,24.23,24.23,0,0,0-1.47,7.5,10.23,10.23,0,0,0,1.32,5.67A5.5,5.5,0,0,0,5,55.91a26.86,26.86,0,0,0,2.22,1.74,28.07,28.07,0,0,0,2.58,1.62,19,19,0,0,0,2.37,1.14,3.33,3.33,0,0,0,1.59.3q.57-.09.21-.93a14.26,14.26,0,0,1-.81-5.37,31.19,31.19,0,0,1,1-7.08,49.2,49.2,0,0,1,2.7-7.89,43,43,0,0,1,4.44-7.83,41.94,41.94,0,0,1,6.18-6.9,29.73,29.73,0,0,1,7.83-5.07,125.48,125.48,0,0,1-2.16,14.94q-1.5,7.2-3.06,13.89T27.39,61.28a55.17,55.17,0,0,0-.93,11.64,5.11,5.11,0,0,0,1.32,3.21,13,13,0,0,0,2.85,2.49,12,12,0,0,0,3.15,1.47,3.52,3.52,0,0,0,2.34.09,4.21,4.21,0,0,0,1-.66q.57-.48,1.14-1t1-1.14l.78-.93a15.57,15.57,0,0,0,1.86-3.66Q43,70,44.55,66t3.57-9.33q2-5.28,4.8-11.46-.18,2.82-.45,4.92T51.9,54q-.3,1.74-.63,3.36t-.66,3.48q-.33,1.86-.6,4.2t-.51,5.52a5.1,5.1,0,0,0,1.23,3.15A11,11,0,0,0,53.46,76a13.41,13.41,0,0,0,3.15,1.44,6.49,6.49,0,0,0,2.55.36,4.21,4.21,0,0,0,2.49-1.41,7.1,7.1,0,0,0,1.47-2.37q.24-.84,1.2-3.87t2.49-7.5q1.53-4.47,3.57-10t4.41-11.19q2.37-5.7,5-11.19a110.28,110.28,0,0,1,5.37-10A52.33,52.33,0,0,1,90.69,12.68Z"/><path class="cls-1" d="M169.35,47.45a1.29,1.29,0,0,0-.84-.24,1.16,1.16,0,0,0-.81.45q-.42,1-.87,2.31a26.23,26.23,0,0,1-1.11,2.67q-.66,1.44-1.23,2.79t-1.11,2.79a13.67,13.67,0,0,1-3.84,6.06,26.67,26.67,0,0,0,1.53-4,24.2,24.2,0,0,0,.87-4.17,21.48,21.48,0,0,0,.09-4.08,16.85,16.85,0,0,0-.69-3.75,7.83,7.83,0,0,0-1.05-2.13,11,11,0,0,0-1.65-1.86,19,19,0,0,0-2-1.59,18,18,0,0,0-2.13-1.26,7,7,0,0,0-1.83-.72,4.85,4.85,0,0,0-1.83-.12,3.13,3.13,0,0,0-1.47.75,12.74,12.74,0,0,0-1.47,1.47,16.27,16.27,0,0,0-1.32,1.77q-.6.93-1,1.53a19.38,19.38,0,0,0-1.8-2,22.27,22.27,0,0,0-2.13-1.89,9.47,9.47,0,0,0-1.86-1.17q-.81-.36-.93.06a4.59,4.59,0,0,0-.3,1.14l-.63,3c-.16.73-.33,1.54-.5,2.38l-.07,0q-1.14,2.46-2.37,5.19t-2.49,5.34q-1.26,2.61-2.49,4.86a26.43,26.43,0,0,1-2.37,3.69q-.72,0-.54-1.23a22.09,22.09,0,0,1,.6-2.73h.06q.42-1.68,1.08-3.72t1.29-3.9q.63-1.86,1-3.24a8.28,8.28,0,0,0,.42-1.8,7,7,0,0,0-1.44-2.19,22.62,22.62,0,0,0-2.43-2.37,16.52,16.52,0,0,0-2.34-1.68q-1.05-.6-1.23-.06a15.27,15.27,0,0,0-.66,1.74,5.28,5.28,0,0,0-.75-.93q-.45-.45-1-1a28.16,28.16,0,0,0-3.21-1.86,7.11,7.11,0,0,0-3.15-.78,8.24,8.24,0,0,0-4.47,1,13.22,13.22,0,0,0-3.72,3.09,20.31,20.31,0,0,0-2.85,4.5A24.32,24.32,0,0,0,103,52.87l-1.42,3q-1.11,2.28-2.25,4.47t-2.13,3.9a26.3,26.3,0,0,1-1.77,2.73q-.78,1-1.14,1-.84.3-1-.9a8.32,8.32,0,0,1,.66-3.6q.48-1.44,1.14-3.24t1.41-3.69q.75-1.89,1.44-3.69t1.2-3.27q.51-1.47.78-2.43t.09-1.14a8,8,0,0,0-.81-2,5.91,5.91,0,0,0-1.77-2.1,2,2,0,0,0-1.08-.15q-.84,0-2,.12t-2.31.09a9.72,9.72,0,0,1-2-.18,1.71,1.71,0,0,1-.81-.45,5.59,5.59,0,0,1-.51-.57,3,3,0,0,1,0-1.77,29.56,29.56,0,0,1,.81-3.06q.54-1.71,1.23-3.42a19.28,19.28,0,0,1,1.35-2.79,2,2,0,0,0,.09-1.95A7.07,7.07,0,0,0,91,25.76a9.64,9.64,0,0,0-1.68-1.5,3.92,3.92,0,0,0-1.23-.66,2.12,2.12,0,0,0-.57-.18,1.15,1.15,0,0,0-.78.21,5,5,0,0,0-1.08,1,17.56,17.56,0,0,0-1.53,2.16A9.74,9.74,0,0,0,82.92,30a14,14,0,0,0-.18,3.9A19,19,0,0,0,83.58,38a14.34,14.34,0,0,0,1.86,3.81q-.66,1.74-1.29,3.63L83.1,48.62a1.79,1.79,0,0,0,.18,1,1.81,1.81,0,0,0,.6.72,1.27,1.27,0,0,0,.81.21,1.16,1.16,0,0,0,.81-.45q.42-1,1.14-2.58t1.5-2.94a5,5,0,0,0,1.08.69,5,5,0,0,1,.75.39.73.73,0,0,1,.33.42,1.1,1.1,0,0,1-.12.66,66,66,0,0,0-2.58,7.62,46.58,46.58,0,0,0-1.23,6.12,25.43,25.43,0,0,0-.21,4.59,13.15,13.15,0,0,0,.48,3,3.27,3.27,0,0,0,1.23,1.68,14.17,14.17,0,0,0,2.19,1.41,19.13,19.13,0,0,0,2.46,1.08,11.71,11.71,0,0,0,2,.57,3.28,3.28,0,0,0,2.64-1,15.6,15.6,0,0,0,2.64-3.21,34.87,34.87,0,0,0,2.44-4.51c.09.39.2.78.32,1.15a8.91,8.91,0,0,0,2.7,4,20.19,20.19,0,0,0,4.08,2.82,7,7,0,0,0,1.83.72,4.85,4.85,0,0,0,1.83.12,2.73,2.73,0,0,0,1.53-.78,13.74,13.74,0,0,0,1.56-1.65q.75-.93,1.38-1.83t1-1.44a16.36,16.36,0,0,0,.9-1.38q.42-.72.84-1.5.06.48.09.9a5.28,5.28,0,0,0,.15.9,13.2,13.2,0,0,0,.51,2.73,8.46,8.46,0,0,0,1.08,2.31,5.74,5.74,0,0,0,1.68,1.65,4.61,4.61,0,0,0,2.31.69,3.72,3.72,0,0,0,2.64-1.23,16.71,16.71,0,0,0,2.7-3.42,48.09,48.09,0,0,0,2.58-4.8c.16-.33.3-.67.46-1,0,.21-.08.41-.13.64l-.9,4.47q-.51,2.52-1.05,5.28t-1,5.16q-.42,2.4-.63,4.14a8.17,8.17,0,0,0-.09,2.22,7,7,0,0,0,1.38,2.16,22.64,22.64,0,0,0,2.28,2.31A11.32,11.32,0,0,0,136.59,91q1,.51,1.17,0a4,4,0,0,0,.3-1q.18-.84.39-2.07t.51-2.82q.3-1.59.66-3.33h-.06l2.28-12.18a1.76,1.76,0,0,0,.48.42,23,23,0,0,0,3.12,1.83,8.71,8.71,0,0,0,3.12.87,8.29,8.29,0,0,0,4.38-1,12.76,12.76,0,0,0,3.66-2.94,10.52,10.52,0,0,0,4-1.56,7.71,7.71,0,0,0,2.82-2.67q1-1.65,2.16-3.75a25.61,25.61,0,0,0,1.44-3q.6-1.5,1.2-3.06t1.08-3l.84-2.52a1.8,1.8,0,0,0-.18-1A2,2,0,0,0,169.35,47.45Zm-48.51,10q-1.14,1.74-2.52,3.63t-2.7,3.45q-1.32,1.56-2.37,2.61a3.61,3.61,0,0,1-1.53,1.11.91.91,0,0,1-1-.57,4.92,4.92,0,0,1-.42-1.68,12.26,12.26,0,0,1,0-2.1q.09-1.11.21-2a14.64,14.64,0,0,1,.66-3,30.3,30.3,0,0,1,1.35-3.48,37.65,37.65,0,0,1,1.8-3.45,24,24,0,0,1,2-3,11.61,11.61,0,0,1,2.07-2,2.5,2.5,0,0,1,1.8-.63,1.15,1.15,0,0,1,.9,1.23,7.23,7.23,0,0,1-.3,2.34,15.81,15.81,0,0,1-1,2.55,10.49,10.49,0,0,1-1,1.8q-.54.6.39.69a5.52,5.52,0,0,0,2-.21Zm24.75,9.12a2.63,2.63,0,0,1-1.89.66q-.84-.12-.9-1.17a7.23,7.23,0,0,1,.3-2.34,15.81,15.81,0,0,1,1-2.55,10.49,10.49,0,0,1,1-1.8q.3-.42-.09-.6a2,2,0,0,0-1.11-.06q.12-.6.24-1.17t.24-1.23l.54-2.4a36.81,36.81,0,0,0,.93,5.7,17.05,17.05,0,0,0,1.89,4.8A11.49,11.49,0,0,1,145.59,66.56Zm8-16.86q-.09,1.14-.21,2a17.28,17.28,0,0,1-1.14,4.44A34.5,34.5,0,0,1,149.94,61a21.89,21.89,0,0,1-1.74-6.57A16,16,0,0,1,149,48.2a22.7,22.7,0,0,1,1.83-2,2.84,2.84,0,0,1,1.23-.84,1,1,0,0,1,1.11.6,4.63,4.63,0,0,1,.42,1.65A12.61,12.61,0,0,1,153.63,49.7Z"/><path class="cls-1" d="M244.83,6.92a19.26,19.26,0,0,0-1.44-2.79q-.81-1.29-1.41-1.47a68.9,68.9,0,0,0-13.92.81,75.32,75.32,0,0,0-13.44,3.45A83.12,83.12,0,0,0,202,12.65a91.18,91.18,0,0,0-21.39,16.53,79.5,79.5,0,0,0-8.13,10q-.12.36.57,1a12.39,12.39,0,0,0,1.8,1.32q1.11.69,2.46,1.38A26.42,26.42,0,0,0,179.94,44a21.14,21.14,0,0,0,2.19.72q.93.24,1.17,0a95.83,95.83,0,0,1,14.4-16.38,69.55,69.55,0,0,1,17.94-11.76q-2.82,6.24-5.43,11.7t-4.83,10.95a117.51,117.51,0,0,0-3.93,11.4,101.46,101.46,0,0,0-2.79,13.11,1.79,1.79,0,0,0,.57,1.11,10.87,10.87,0,0,0,1.53,1.35A74,74,0,0,0,191.25,70a63.46,63.46,0,0,0-8.07,4.53q-.24.3.18.9a9.25,9.25,0,0,0,1.17,1.32q.75.72,1.71,1.5a19.13,19.13,0,0,0,1.92,1.38,18,18,0,0,0,1.71,1,1.64,1.64,0,0,0,1.11.24,38.12,38.12,0,0,1,6.15-3.21,53.34,53.34,0,0,1,6.81-2.28,66.53,66.53,0,0,1,7.2-1.47q3.66-.54,7.32-.72.36-.12.27-.87a6.79,6.79,0,0,0-.54-1.8q-.45-1.05-1.11-2.25A23.41,23.41,0,0,0,215.7,66a11.29,11.29,0,0,0-1.38-1.65,1.82,1.82,0,0,0-1.08-.63q-1,.06-1.89.18l-1.95.24a116,116,0,0,1,2.25-11.7Q213,47,214.77,41.81t4-10.5Q221,26,223.68,19.94a1.4,1.4,0,0,0-.39-1,12.29,12.29,0,0,0-1.14-1.29,15.15,15.15,0,0,0-1.56-1.35q-.87-.66-1.65-1.14a66.36,66.36,0,0,1,12.6-3.39,64.65,64.65,0,0,1,13.92-.75q.54-.12.27-1.38A15.71,15.71,0,0,0,244.83,6.92Z"/><path class="cls-1" d="M240.75,47.45a1.29,1.29,0,0,0-.84-.24,1.16,1.16,0,0,0-.81.45q-.72,1.62-1.65,3.75t-1.89,4.38q-1,2.25-1.95,4.35t-1.8,3.69a15.3,15.3,0,0,1-1.47,2.43q-.66.84-1,.48a1.74,1.74,0,0,1-.3-1.2,11.15,11.15,0,0,1,.3-2.28q1.2-7.08,2.34-13T233.82,40h.66a2.11,2.11,0,0,0,1-.54,2.46,2.46,0,0,0,.63-.87,1.32,1.32,0,0,0,.06-.87.94.94,0,0,0-.72-.6,3.68,3.68,0,0,1-.51,0l-.51-.09,1.08-4.92q.42-1.92.54-2.76a7.12,7.12,0,0,0-1.41-2.19,20.65,20.65,0,0,0-2.4-2.37,15.56,15.56,0,0,0-2.37-1.68q-1.08-.6-1.26-.06a5.36,5.36,0,0,0-.33,1.23l-.69,3.15q-.42,1.92-.93,4.29t-.93,4.59q-.54-.06-1.08-.09a9.81,9.81,0,0,1-1.2-.15,1.57,1.57,0,0,0-1.2.63,4.4,4.4,0,0,0-.81,1.38,2.87,2.87,0,0,0-.18,1.38.75.75,0,0,0,.75.69h3q-.18.84-.27,1.56a10.38,10.38,0,0,1-.21,1.2q-.36,2.1-1.05,5.37t-1.23,6.87q-.54,3.6-.72,7a18.36,18.36,0,0,0,.54,6A4.13,4.13,0,0,0,223,69.8a8.57,8.57,0,0,0,1.56,1.38,9.54,9.54,0,0,0,1.83,1,7.87,7.87,0,0,0,1.74.51,3.36,3.36,0,0,0,2.67-1,15.29,15.29,0,0,0,2.67-3.18A35.24,35.24,0,0,0,236,63.89q1.2-2.61,2.25-5.28t1.89-5.16Q241,51,241.5,49.22a2,2,0,0,0-.15-1A1.76,1.76,0,0,0,240.75,47.45Z"/><path class="cls-1" d="M346.32,48.17a2,2,0,0,0-.63-.72,1.29,1.29,0,0,0-.84-.24,1.16,1.16,0,0,0-.81.45q-.42,1-.87,2.31a26.23,26.23,0,0,1-1.11,2.67q-.66,1.44-1.23,2.79t-1.11,2.79a13.67,13.67,0,0,1-3.84,6.06,26.67,26.67,0,0,0,1.53-4,24.2,24.2,0,0,0,.87-4.17,21.48,21.48,0,0,0,.09-4.08,16.85,16.85,0,0,0-.69-3.75,7.83,7.83,0,0,0-1.05-2.13A11,11,0,0,0,335,44.33a19,19,0,0,0-2-1.59,18,18,0,0,0-2.13-1.26,7,7,0,0,0-1.83-.72,4.85,4.85,0,0,0-1.83-.12,3.13,3.13,0,0,0-1.47.75,12.74,12.74,0,0,0-1.47,1.47,16.27,16.27,0,0,0-1.32,1.77q-.6.93-1,1.53a19.38,19.38,0,0,0-1.8-2A22.27,22.27,0,0,0,318,42.23a9.47,9.47,0,0,0-1.86-1.17q-.81-.36-.93.06a4.59,4.59,0,0,0-.3,1.14l-.63,3-.87,4.11q-.48,2.28-.9,4.47t-.78,4.11q-.36,1.92-.48,3-.12.84-.51,2.79l-.9,4.47q-.51,2.52-1.05,5.28t-1,5.16c-.26,1.5-.46,2.79-.6,3.9-.13-.23-.27-.48-.45-.78a7.6,7.6,0,0,1-.93-2.46,75.36,75.36,0,0,1-1.5-12.72,87.63,87.63,0,0,1,.42-11.82A90,90,0,0,1,306.51,44Q307.68,39,309,34.58t2.67-8Q313,22.88,314,20.06a2.1,2.1,0,0,0-.12-1.35,12.74,12.74,0,0,0-.93-2.19q-.63-1.2-1.41-2.46a18.72,18.72,0,0,0-1.59-2.22,6.92,6.92,0,0,0-1.47-1.38q-.66-.42-1,.06-1.62,4-3.81,9.69t-4.29,12.57q-1.68,4-3.6,8.31t-3.84,8.49q-1.92,4.14-3.75,7.83t-3.24,6.42q-1.41,2.73-2.31,4.2t-1,1.11a6.4,6.4,0,0,1-.33-2.37,17.05,17.05,0,0,1,.36-3q.33-1.62.81-3.36t1-3.3q.48-1.56.9-2.82t.6-2q.6-2.46,1.38-5.49t1.56-6.36q.78-3.33,1.44-6.72t1.11-6.54a54.56,54.56,0,0,0,.54-5.94,20.89,20.89,0,0,0-.33-4.83A4.4,4.4,0,0,0,289,14.06a15.12,15.12,0,0,0-2.82-1.83,10.61,10.61,0,0,0-2.82-1q-1.32-.24-1.68.24a53.46,53.46,0,0,0-11.73,5.61,54.08,54.08,0,0,0-9.24,7.44A50.13,50.13,0,0,0,254,32.9a41,41,0,0,0-4.14,8.37,24.23,24.23,0,0,0-1.47,7.5,10.23,10.23,0,0,0,1.32,5.67A5.5,5.5,0,0,0,251,55.91a26.86,26.86,0,0,0,2.22,1.74,28.07,28.07,0,0,0,2.58,1.62,19,19,0,0,0,2.37,1.14,3.33,3.33,0,0,0,1.59.3q.57-.09.21-.93a14.26,14.26,0,0,1-.81-5.37,31.19,31.19,0,0,1,1-7.08,49.2,49.2,0,0,1,2.7-7.89,43,43,0,0,1,4.44-7.83,41.94,41.94,0,0,1,6.18-6.9,29.73,29.73,0,0,1,7.83-5.07,95.73,95.73,0,0,1-2,13.59q-1.44,6.27-2.91,12t-2.52,11.16a48.37,48.37,0,0,0-.87,10.86,5.19,5.19,0,0,0,1.29,3.21A12.37,12.37,0,0,0,277,73a11.2,11.2,0,0,0,3.18,1.44,3.69,3.69,0,0,0,2.37.06,5.85,5.85,0,0,0,.93-.63,13.48,13.48,0,0,0,1.17-1q.6-.6,1.08-1.14l.78-.9a12.79,12.79,0,0,0,1.32-2q.6-1.14,1.41-3t2-4.86q1.2-3,3.24-7.47a101.62,101.62,0,0,0-1.05,11,47.63,47.63,0,0,0,.63,10.11,4.7,4.7,0,0,0,.81,1.77A13.28,13.28,0,0,0,297,78.65a23.73,23.73,0,0,0,3.33,2.55,19.65,19.65,0,0,0,4.47,2.1,12.22,12.22,0,0,0,2.26.61,4.24,4.24,0,0,0,0,1.07,7,7,0,0,0,1.38,2.16,22.64,22.64,0,0,0,2.28,2.31A11.32,11.32,0,0,0,312.93,91q1,.51,1.17,0a4,4,0,0,0,.3-1q.18-.84.39-2.07t.51-2.82q.3-1.59.66-3.33h-.06l2.28-12.18a1.76,1.76,0,0,0,.48.42,23,23,0,0,0,3.12,1.83,8.71,8.71,0,0,0,3.12.87,8.29,8.29,0,0,0,4.38-1,12.76,12.76,0,0,0,3.66-2.94,10.52,10.52,0,0,0,4-1.56,7.71,7.71,0,0,0,2.82-2.67q1-1.65,2.16-3.75a25.61,25.61,0,0,0,1.44-3q.6-1.5,1.2-3.06t1.08-3l.84-2.52A1.8,1.8,0,0,0,346.32,48.17ZM321.93,66.56a2.63,2.63,0,0,1-1.89.66q-.84-.12-.9-1.17a7.23,7.23,0,0,1,.3-2.34,15.81,15.81,0,0,1,1-2.55,10.49,10.49,0,0,1,1-1.8q.3-.42-.09-.6a2,2,0,0,0-1.11-.06q.12-.6.24-1.17t.24-1.23l.54-2.4a36.81,36.81,0,0,0,.93,5.7,17.05,17.05,0,0,0,1.89,4.8A11.49,11.49,0,0,1,321.93,66.56Zm8-16.86q-.09,1.14-.21,2a17.28,17.28,0,0,1-1.14,4.44A34.5,34.5,0,0,1,326.28,61a21.89,21.89,0,0,1-1.74-6.57,16,16,0,0,1,.84-6.27,22.7,22.7,0,0,1,1.83-2,2.84,2.84,0,0,1,1.23-.84,1,1,0,0,1,1.11.6,4.63,4.63,0,0,1,.42,1.65A12.61,12.61,0,0,1,330,49.7Z"/></svg>